<svg width="100" height="97" viewBox="0 0 100 97" fill="none" xmlns="http://www.w3.org/2000/svg">
<path d="M93.7062 59.5945C92.9552 64.3455 90.8149 69.0348 86.9431 72.1547C81.8898 76.3309 74.4531 76.8416 68.9077 73.2681C63.1265 69.6457 61.5993 63.8139 59.3695 57.9669C56.286 50.0096 51.2654 49.1947 43.7163 46.8221C35.8093 44.3562 30.4452 38.9942 27.2058 31.6875C25.5371 27.7981 24.2226 23.0541 25.8454 19.0107C26.6314 17.0963 28.3654 15.7462 30.5009 15.7159C34.0317 15.7089 36.7319 18.0034 39.7573 19.7697C42.5724 21.5127 45.6958 22.7393 49.0888 22.2368C53.6826 21.5885 57.6004 18.5654 61.7516 16.5507C64.4711 15.1761 67.4168 13.9997 70.366 13.5788C74.5027 12.9306 78.2368 14.2574 81.0869 17.1173C86.0978 22.1657 89.324 30.8469 91.3905 37.8831C93.3325 44.9053 94.821 52.3193 93.7086 59.5747L93.7049 59.5956L93.7062 59.5945Z" fill="white"/>
<path d="M37.9363 60.315C37.9774 68.0834 32.6532 76.0581 24.4814 77.3709C17.6409 78.5415 10.7315 74.2801 7.59725 68.4949C3.67216 61.587 3.7701 53.161 6.12443 45.7599C7.38322 41.832 9.22726 37.9286 11.919 34.713C14.4075 31.7307 18.017 29.5959 21.6978 31.8834C24.5177 33.6008 26.7463 37.1544 28.7463 39.9141C33.247 46.2554 38.1044 52.2225 37.9375 60.2929V60.315H37.9363Z" fill="white"/>
<path d="M0 94.4163V82.0457C0 81.0924 0.781765 80.3387 1.77047 80.3387H2.16135C2.92012 80.3387 3.44896 80.7155 3.77087 81.2254L8.04758 87.9428L12.3473 81.2033C12.7152 80.6269 13.221 80.3387 13.9338 80.3387H14.3247C15.3134 80.3387 16.0952 81.0924 16.0952 82.0457V94.372C16.0952 95.3253 15.3134 96.079 14.3247 96.079C13.359 96.079 12.5772 95.3031 12.5772 94.372V86.6348L9.47315 91.2461C9.10526 91.7782 8.6454 92.1107 8.00159 92.1107C7.35779 92.1107 6.89793 91.7782 6.53004 91.2461L3.47196 86.7013V94.4163C3.47196 95.3475 2.69019 96.079 1.72448 96.079C0.758772 96.079 0 95.3475 0 94.4163Z" fill="white"/>
<path d="M19.5939 94.3942V85.615C19.5939 84.6839 20.3756 83.9301 21.3414 83.9301C22.3071 83.9301 23.0888 84.6839 23.0888 85.615V86.1471C23.5947 84.9943 24.4224 83.9301 25.4571 83.9301C26.5378 83.9301 27.1586 84.6174 27.1586 85.5707C27.1586 86.4575 26.5608 86.9895 25.848 87.1447C24.0775 87.5438 23.0888 88.8518 23.0888 91.2461V94.3942C23.0888 95.3253 22.3071 96.079 21.3414 96.079C20.3756 96.079 19.5939 95.3253 19.5939 94.3942Z" fill="white"/>
<path d="M26.8626 94.1503C26.8626 93.0862 27.7133 92.2659 28.863 92.2659C30.0126 92.2659 30.8634 93.0862 30.8634 94.1503V94.1946C30.8634 95.2588 30.0126 96.079 28.863 96.079C27.7133 96.079 26.8626 95.2588 26.8626 94.1946V94.1503Z" fill="white"/>
<path d="M35.2901 94.7932L30.7834 82.6C30.7145 82.4004 30.6455 82.1566 30.6455 81.957C30.6455 81.0037 31.4732 80.2943 32.4619 80.2943C33.2897 80.2943 33.9565 80.8042 34.1864 81.5136L37.3824 91.0244L40.6015 81.6023C40.8774 80.8042 41.4982 80.25 42.3949 80.25H42.6709C43.5676 80.25 44.1884 80.7821 44.4643 81.6023L47.6833 91.0244L50.8794 81.5136C51.1093 80.8486 51.7071 80.2943 52.5809 80.2943C53.5466 80.2943 54.3284 81.0037 54.3284 81.9349C54.3284 82.1344 54.2594 82.4004 54.1904 82.6L49.6838 94.7932C49.3618 95.6578 48.695 96.1899 47.8443 96.1899H47.4764C46.6257 96.1899 45.9819 95.68 45.66 94.7932L42.4869 85.9032L39.3139 94.7932C38.992 95.68 38.3482 96.1899 37.4974 96.1899H37.1295C36.2788 96.1899 35.612 95.6578 35.2901 94.7932Z" fill="white"/>
<path d="M59.1278 96.1677C56.8055 96.1677 54.8971 94.8819 54.8971 92.5319V92.4876C54.8971 89.8937 56.9435 88.6966 59.8636 88.6966C61.1052 88.6966 62.0019 88.8961 62.8757 89.1843V88.9848C62.8757 87.5881 61.9789 86.8122 60.2315 86.8122C59.2658 86.8122 58.484 86.9452 57.8172 87.1447C57.6103 87.2112 57.4723 87.2334 57.3113 87.2334C56.5066 87.2334 55.8628 86.6348 55.8628 85.8589C55.8628 85.2603 56.2537 84.7504 56.8055 84.5509C57.9092 84.1518 59.1048 83.9301 60.7373 83.9301C62.6457 83.9301 64.0253 84.4179 64.8991 85.2603C65.8188 86.1471 66.2327 87.4551 66.2327 89.0513V94.4607C66.2327 95.3696 65.4739 96.079 64.5312 96.079C63.5195 96.079 62.8527 95.3918 62.8527 94.6824V94.6602C62.0019 95.5691 60.8293 96.1677 59.1278 96.1677ZM60.1855 93.8399C61.818 93.8399 62.9217 92.9753 62.9217 91.756V91.1574C62.3238 90.8914 61.5421 90.714 60.6913 90.714C59.1968 90.714 58.2771 91.2904 58.2771 92.3546V92.3989C58.2771 93.3079 59.0588 93.8399 60.1855 93.8399Z" fill="white"/>
<path d="M73.2896 96.1456C71.1512 96.1456 69.7027 95.3253 69.7027 92.5763V86.9452H69.5877C68.7599 86.9452 68.0931 86.3023 68.0931 85.5042C68.0931 84.7061 68.7599 84.0631 69.5877 84.0631H69.7027V82.5778C69.7027 81.6467 70.4844 80.8929 71.4501 80.8929C72.4158 80.8929 73.1976 81.6467 73.1976 82.5778V84.0631H74.7381C75.5659 84.0631 76.2327 84.7061 76.2327 85.5042C76.2327 86.3023 75.5659 86.9452 74.7381 86.9452H73.1976V92.022C73.1976 92.798 73.5425 93.1748 74.3243 93.1748C74.4392 93.1748 74.6692 93.1527 74.7381 93.1527C75.5199 93.1527 76.1867 93.7734 76.1867 94.5493C76.1867 95.1479 75.7728 95.6357 75.29 95.813C74.6462 96.0569 74.0483 96.1456 73.2896 96.1456Z" fill="white"/>
<path d="M81.1622 89.0735H86.4276C86.2207 87.5659 85.3009 86.5461 83.8294 86.5461C82.3808 86.5461 81.4381 87.5438 81.1622 89.0735ZM88.451 94.771C87.3703 95.6578 85.9677 96.2121 84.1743 96.2121C80.4724 96.2121 77.7362 93.7069 77.7362 90.0711V90.0268C77.7362 86.6348 80.2425 83.8415 83.8294 83.8415C87.9452 83.8415 89.7616 87.1004 89.7616 89.5612C89.7616 90.5367 89.0488 91.1796 88.1291 91.1796H81.2082C81.5531 92.7093 82.6567 93.5074 84.2203 93.5074C85.186 93.5074 85.9907 93.2192 86.7035 92.7093C86.9564 92.5319 87.1864 92.4432 87.5543 92.4432C88.336 92.4432 88.9109 93.0197 88.9109 93.7734C88.9109 94.2168 88.7039 94.5493 88.451 94.771Z" fill="white"/>
<path d="M92.4353 94.3942V85.615C92.4353 84.6839 93.217 83.9301 94.1827 83.9301C95.1485 83.9301 95.9302 84.6839 95.9302 85.615V86.1471C96.4361 84.9943 97.2638 83.9301 98.2985 83.9301C99.3792 83.9301 100 84.6174 100 85.5707C100 86.4575 99.4022 86.9895 98.6894 87.1447C96.9189 87.5438 95.9302 88.8518 95.9302 91.2461V94.3942C95.9302 95.3253 95.1485 96.079 94.1827 96.079C93.217 96.079 92.4353 95.3253 92.4353 94.3942Z" fill="white"/>
<path d="M86.6453 9.2072V7.0195H85.9558C85.7741 7.0195 85.625 6.87575 85.625 6.70055C85.625 6.52536 85.7741 6.3816 85.9558 6.3816H88.0524C88.2341 6.3816 88.3832 6.52536 88.3832 6.70055C88.3832 6.87575 88.2341 7.0195 88.0524 7.0195H87.3628V9.2072C87.3628 9.40037 87.2044 9.5531 87.0041 9.5531C86.8037 9.5531 86.6453 9.40037 86.6453 9.2072Z" fill="white"/>
<path d="M88.907 9.21619V6.70954C88.907 6.51637 89.0654 6.36364 89.2658 6.36364H89.345C89.4987 6.36364 89.6059 6.44 89.6711 6.54332L90.5377 7.90446L91.409 6.53883C91.4835 6.42203 91.586 6.36364 91.7304 6.36364H91.8096C92.01 6.36364 92.1684 6.51637 92.1684 6.70954V9.2072C92.1684 9.40037 92.01 9.5531 91.8096 9.5531C91.614 9.5531 91.4555 9.39587 91.4555 9.2072V7.63942L90.8266 8.5738C90.752 8.68161 90.6588 8.749 90.5284 8.749C90.3979 8.749 90.3048 8.68161 90.2302 8.5738L89.6106 7.6529V9.21619C89.6106 9.40486 89.4521 9.5531 89.2565 9.5531C89.0608 9.5531 88.907 9.40486 88.907 9.21619Z" fill="white"/>
<path d="M59.9539 2.48727V7.36364C59.9539 7.58182 59.8012 7.74546 59.5721 7.74546C59.3539 7.74546 59.2012 7.58182 59.2012 7.36364L59.1793 6.57818C58.7757 7.39636 58.0775 7.8 57.1066 7.8C56.4848 7.8 55.9612 7.58182 55.5466 7.14545C55.143 6.70909 54.9357 6.08727 54.9357 5.26909V2.48727C54.8812 1.94182 55.8193 1.94182 55.7539 2.48727V4.99636C55.7539 6.36 56.4302 7.03636 57.3466 7.03636C58.3939 7.03636 59.1357 6.34909 59.1357 4.83273V2.48727C59.0702 1.94182 60.0084 1.94182 59.9539 2.48727Z" fill="white"/>
<path d="M50.0317 6.91637C50.0317 6.62182 50.3699 6.49091 50.6208 6.67637C51.0681 6.98182 51.559 7.13455 52.0936 7.13455C52.8463 7.13455 53.3045 6.75273 53.3045 6.26182C53.3045 5.74909 52.9881 5.38909 51.8536 5.09455C50.839 4.82182 50.239 4.26546 50.239 3.53455C50.239 3.10909 50.4136 2.76 50.7517 2.46546C51.0899 2.17091 51.5699 2.01818 52.1699 2.01818C52.7481 2.01818 53.2717 2.17091 53.7299 2.46546C53.8826 2.56364 53.959 2.68364 53.959 2.80364C53.959 3.01091 53.8281 3.14182 53.6426 3.14182C53.5663 3.14182 53.4681 3.10909 53.3699 3.04364C53.0099 2.80364 52.6172 2.68364 52.2026 2.68364C51.4717 2.68364 51.0572 3.05455 51.0572 3.44727C51.0572 3.89455 51.3736 4.22182 52.3445 4.48364C53.5336 4.8 54.1226 5.35636 54.1226 6.15273C54.1226 6.62182 53.9372 7.01455 53.5663 7.33091C53.2063 7.64727 52.7045 7.8 52.0826 7.8C51.3299 7.8 50.7299 7.62546 50.2608 7.26546C50.1081 7.15636 50.0317 7.03637 50.0317 6.91637Z" fill="white"/>
<path d="M46.813 7.33091V2.44364C46.7585 1.96364 47.5875 1.96364 47.5439 2.44364L47.5766 3.38182C47.9585 2.52 48.6785 2.01818 49.5621 2.01818C50.1294 2.01818 50.1294 2.84727 49.5621 2.84727C48.3512 2.84727 47.6312 3.64364 47.6312 5.18182V7.33091C47.6966 7.87637 46.7585 7.87637 46.813 7.33091Z" fill="white"/>
<path d="M39.0909 7.35273C39.0909 7.29818 39.1127 7.21091 39.1672 7.08L42.0691 0.447273C42.2 0.152727 42.3963 0 42.6582 0C42.92 0 43.1163 0.152727 43.2472 0.447273L46.1382 7.08C46.1818 7.16727 46.2036 7.24364 46.2036 7.32C46.2036 7.57091 46.04 7.74545 45.7891 7.74545C45.5818 7.74545 45.44 7.63636 45.3636 7.42909L44.5236 5.48727H40.7382L39.8982 7.42909C39.8218 7.63636 39.6909 7.74545 39.5054 7.74545C39.2545 7.74545 39.0909 7.58182 39.0909 7.35273ZM42.6363 1.00364L41.0109 4.8H44.2509L42.6363 1.00364Z" fill="white"/>
</svg>
