<svg width="125" height="104" viewBox="0 0 125 104" fill="none" xmlns="http://www.w3.org/2000/svg">
<path d="M107.229 59.5945C106.478 64.3455 104.337 69.0348 100.466 72.1547C95.4122 76.331 87.9756 76.8416 82.4302 73.2681C76.649 69.6457 75.1217 63.8139 72.8919 57.9669C69.8085 50.0096 64.7878 49.1947 57.2387 46.8221C49.3317 44.3562 43.9677 38.9942 40.7282 31.6875C39.0595 27.7981 37.7451 23.0541 39.3679 19.0107C40.1539 17.0963 41.8879 15.7462 44.0233 15.7159C47.5542 15.7089 50.2544 18.0034 53.2798 19.7697C56.0948 21.5128 59.2182 22.7393 62.6113 22.2368C67.205 21.5885 71.1229 18.5654 75.2741 16.5507C77.9936 15.1761 80.9392 13.9997 83.8885 13.5788C88.0252 12.9306 91.7592 14.2574 94.6093 17.1173C99.6203 22.1657 102.846 30.8469 104.913 37.8831C106.855 44.9053 108.344 52.3193 107.231 59.5747L107.227 59.5957L107.229 59.5945Z" fill="#25286D"/>
<path d="M51.4587 60.315C51.4998 68.0834 46.1757 76.0581 38.0039 77.3709C31.1634 78.5415 24.254 74.2801 21.1197 68.495C17.1946 61.587 17.2926 53.1611 19.6469 45.7599C20.9057 41.832 22.7497 37.9286 25.4414 34.7131C27.93 31.7307 31.5395 29.5959 35.2203 31.8834C38.0402 33.6008 40.2687 37.1544 42.2688 39.9141C46.7694 46.2554 51.6268 52.2225 51.4599 60.2929V60.315H51.4587Z" fill="#25286D"/>
<path d="M0 101.489V85.9893C0 84.7948 0.977206 83.8504 2.21309 83.8504H2.70169C3.65015 83.8504 4.3112 84.3226 4.71358 84.9615L10.0595 93.3781L15.4341 84.9337C15.894 84.2115 16.5263 83.8504 17.4173 83.8504H17.9059C19.1417 83.8504 20.119 84.7948 20.119 85.9893V101.434C20.119 102.628 19.1417 103.573 17.9059 103.573C16.6987 103.573 15.7215 102.6 15.7215 101.434V91.7393L11.8414 97.517C11.3816 98.1837 10.8068 98.6004 10.002 98.6004C9.19724 98.6004 8.62241 98.1837 8.16255 97.517L4.33995 91.8226V101.489C4.33995 102.656 3.36274 103.573 2.1556 103.573C0.948465 103.573 0 102.656 0 101.489Z" fill="#25286D"/>
<path d="M24.4924 101.461V90.4615C24.4924 89.2948 25.4696 88.3504 26.6767 88.3504C27.8838 88.3504 28.861 89.2948 28.861 90.4615V91.1281C29.4934 89.6837 30.528 88.3504 31.8214 88.3504C33.1722 88.3504 33.9483 89.2115 33.9483 90.4059C33.9483 91.517 33.201 92.1837 32.31 92.3781C30.0969 92.8781 28.861 94.517 28.861 97.517V101.461C28.861 102.628 27.8838 103.573 26.6767 103.573C25.4696 103.573 24.4924 102.628 24.4924 101.461Z" fill="#25286D"/>
<path d="M33.5782 101.156C33.5782 99.8226 34.6417 98.7948 36.0787 98.7948C37.5158 98.7948 38.5792 99.8226 38.5792 101.156V101.211C38.5792 102.545 37.5158 103.573 36.0787 103.573C34.6417 103.573 33.5782 102.545 33.5782 101.211V101.156Z" fill="#25286D"/>
<path d="M44.1126 101.961L38.4793 86.6837C38.3931 86.4337 38.3068 86.1281 38.3068 85.8781C38.3068 84.6837 39.3415 83.7948 40.5774 83.7948C41.6121 83.7948 42.4456 84.4337 42.733 85.3226L46.7281 97.2393L50.7519 85.4337C51.0968 84.4337 51.8728 83.7393 52.9937 83.7393H53.3386C54.4595 83.7393 55.2355 84.4059 55.5804 85.4337L59.6042 97.2393L63.5992 85.3226C63.8867 84.4893 64.6339 83.7948 65.7261 83.7948C66.9332 83.7948 67.9104 84.6837 67.9104 85.8504C67.9104 86.1004 67.8242 86.4337 67.738 86.6837L62.1047 101.961C61.7023 103.045 60.8688 103.711 59.8054 103.711H59.3455C58.2821 103.711 57.4773 103.073 57.075 101.961L53.1086 90.8226L49.1423 101.961C48.74 103.073 47.9352 103.711 46.8718 103.711H46.4119C45.3485 103.711 44.515 103.045 44.1126 101.961Z" fill="#25286D"/>
<path d="M73.9098 103.684C71.0069 103.684 68.6213 102.073 68.6213 99.1281V99.0726C68.6213 95.8226 71.1793 94.3226 74.8295 94.3226C76.3815 94.3226 77.5024 94.5726 78.5946 94.9337V94.6837C78.5946 92.9337 77.4737 91.9615 75.2893 91.9615C74.0822 91.9615 73.105 92.1281 72.2715 92.3781C72.0128 92.4615 71.8404 92.4893 71.6392 92.4893C70.6332 92.4893 69.8285 91.7393 69.8285 90.767C69.8285 90.017 70.3171 89.3781 71.0069 89.1281C72.3865 88.6281 73.881 88.3504 75.9217 88.3504C78.3072 88.3504 80.0317 88.9615 81.1238 90.017C82.2735 91.1281 82.7908 92.767 82.7908 94.767V101.545C82.7908 102.684 81.8424 103.573 80.664 103.573C79.3994 103.573 78.5659 102.711 78.5659 101.823V101.795C77.5024 102.934 76.0366 103.684 73.9098 103.684ZM75.2319 100.767C77.2725 100.767 78.6521 99.6837 78.6521 98.1559V97.4059C77.9048 97.0726 76.9276 96.8504 75.8642 96.8504C73.996 96.8504 72.8463 97.5726 72.8463 98.9059V98.9615C72.8463 100.1 73.8235 100.767 75.2319 100.767Z" fill="#25286D"/>
<path d="M91.612 103.656C88.939 103.656 87.1283 102.628 87.1283 99.1837V92.1281H86.9846C85.9499 92.1281 85.1164 91.3226 85.1164 90.3226C85.1164 89.3226 85.9499 88.517 86.9846 88.517H87.1283V86.6559C87.1283 85.4893 88.1055 84.5448 89.3127 84.5448C90.5198 84.5448 91.497 85.4893 91.497 86.6559V88.517H93.4227C94.4574 88.517 95.2909 89.3226 95.2909 90.3226C95.2909 91.3226 94.4574 92.1281 93.4227 92.1281H91.497V98.4893C91.497 99.4615 91.9281 99.9337 92.9053 99.9337C93.049 99.9337 93.3364 99.9059 93.4227 99.9059C94.3999 99.9059 95.2334 100.684 95.2334 101.656C95.2334 102.406 94.716 103.017 94.1125 103.239C93.3077 103.545 92.5604 103.656 91.612 103.656Z" fill="#25286D"/>
<path d="M101.453 94.7948H108.035C107.776 92.9059 106.626 91.6281 104.787 91.6281C102.976 91.6281 101.798 92.8781 101.453 94.7948ZM110.564 101.934C109.213 103.045 107.46 103.739 105.218 103.739C100.59 103.739 97.1703 100.6 97.1703 96.0448V95.9893C97.1703 91.7393 100.303 88.2393 104.787 88.2393C109.931 88.2393 112.202 92.3226 112.202 95.4059C112.202 96.6281 111.311 97.4337 110.161 97.4337H101.51C101.941 99.3504 103.321 100.35 105.275 100.35C106.482 100.35 107.488 99.9893 108.379 99.3504C108.696 99.1281 108.983 99.017 109.443 99.017C110.42 99.017 111.139 99.7393 111.139 100.684C111.139 101.239 110.88 101.656 110.564 101.934Z" fill="#25286D"/>
<path d="M115.544 101.461V90.4615C115.544 89.2948 116.521 88.3504 117.728 88.3504C118.936 88.3504 119.913 89.2948 119.913 90.4615V91.1281C120.545 89.6837 121.58 88.3504 122.873 88.3504C124.224 88.3504 125 89.2115 125 90.4059C125 91.517 124.253 92.1837 123.362 92.3781C121.149 92.8781 119.913 94.517 119.913 97.517V101.461C119.913 102.628 118.936 103.573 117.728 103.573C116.521 103.573 115.544 102.628 115.544 101.461Z" fill="#25286D"/>
<path d="M92.0203 9.20709V7.01939H91.3308C91.1491 7.01939 91 6.87564 91 6.70044C91 6.52524 91.1491 6.38149 91.3308 6.38149H93.4274C93.6091 6.38149 93.7582 6.52524 93.7582 6.70044C93.7582 6.87564 93.6091 7.01939 93.4274 7.01939H92.7378V9.20709C92.7378 9.40026 92.5794 9.55299 92.3791 9.55299C92.1787 9.55299 92.0203 9.40026 92.0203 9.20709Z" fill="#25286D"/>
<path d="M94.282 9.21608V6.70943C94.282 6.51626 94.4404 6.36353 94.6408 6.36353H94.72C94.8737 6.36353 94.9809 6.43989 95.0461 6.54321L95.9127 7.90435L96.784 6.53872C96.8585 6.42192 96.961 6.36353 97.1054 6.36353H97.1846C97.385 6.36353 97.5434 6.51626 97.5434 6.70943V9.20709C97.5434 9.40026 97.385 9.55299 97.1846 9.55299C96.989 9.55299 96.8305 9.39576 96.8305 9.20709V7.63931L96.2016 8.57369C96.127 8.6815 96.0338 8.74889 95.9034 8.74889C95.7729 8.74889 95.6798 8.6815 95.6052 8.57369L94.9856 7.65279V9.21608C94.9856 9.40475 94.8271 9.55299 94.6315 9.55299C94.4358 9.55299 94.282 9.40475 94.282 9.21608Z" fill="#25286D"/>
<path d="M71.863 2.48722V7.36358C71.863 7.58176 71.7103 7.7454 71.4812 7.7454C71.263 7.7454 71.1103 7.58176 71.1103 7.36358L71.0885 6.57812C70.6848 7.39631 69.9866 7.79994 69.0157 7.79994C68.3939 7.79994 67.8703 7.58176 67.4557 7.1454C67.0521 6.70903 66.8448 6.08722 66.8448 5.26903V2.48722C66.7903 1.94176 67.7285 1.94176 67.663 2.48722V4.99631C67.663 6.35994 68.3394 7.03631 69.2557 7.03631C70.303 7.03631 71.0448 6.34903 71.0448 4.83267V2.48722C70.9794 1.94176 71.9175 1.94176 71.863 2.48722Z" fill="#25286D"/>
<path d="M61.9409 6.91625C61.9409 6.6217 62.279 6.49079 62.5299 6.67625C62.9772 6.9817 63.4681 7.13443 64.0027 7.13443C64.7554 7.13443 65.2136 6.75261 65.2136 6.2617C65.2136 5.74898 64.8972 5.38898 63.7627 5.09443C62.7481 4.8217 62.1481 4.26534 62.1481 3.53443C62.1481 3.10898 62.3227 2.75989 62.6609 2.46534C62.999 2.17079 63.479 2.01807 64.079 2.01807C64.6572 2.01807 65.1809 2.17079 65.639 2.46534C65.7918 2.56352 65.8681 2.68352 65.8681 2.80352C65.8681 3.01079 65.7372 3.1417 65.5518 3.1417C65.4754 3.1417 65.3772 3.10898 65.279 3.04352C64.919 2.80352 64.5263 2.68352 64.1118 2.68352C63.3809 2.68352 62.9663 3.05443 62.9663 3.44716C62.9663 3.89443 63.2827 4.2217 64.2536 4.48352C65.4427 4.79989 66.0318 5.35625 66.0318 6.15261C66.0318 6.6217 65.8463 7.01443 65.4754 7.33079C65.1154 7.64716 64.6136 7.79989 63.9918 7.79989C63.239 7.79989 62.639 7.62534 62.1699 7.26534C62.0172 7.15625 61.9409 7.03625 61.9409 6.91625Z" fill="#25286D"/>
<path d="M58.7221 7.33079V2.44352C58.6676 1.96352 59.4967 1.96352 59.453 2.44352L59.4858 3.3817C59.8676 2.51989 60.5876 2.01807 61.4712 2.01807C62.0385 2.01807 62.0385 2.84716 61.4712 2.84716C60.2603 2.84716 59.5403 3.64352 59.5403 5.1817V7.33079C59.6058 7.87625 58.6676 7.87625 58.7221 7.33079Z" fill="#25286D"/>
<path d="M51 7.35273C51 7.29818 51.0218 7.21091 51.0764 7.08L53.9782 0.447273C54.1091 0.152727 54.3055 0 54.5673 0C54.8291 0 55.0255 0.152727 55.1564 0.447273L58.0473 7.08C58.0909 7.16727 58.1127 7.24364 58.1127 7.32C58.1127 7.57091 57.9491 7.74545 57.6982 7.74545C57.4909 7.74545 57.3491 7.63636 57.2727 7.42909L56.4327 5.48727H52.6473L51.8073 7.42909C51.7309 7.63636 51.6 7.74545 51.4145 7.74545C51.1636 7.74545 51 7.58182 51 7.35273ZM54.5455 1.00364L52.92 4.8H56.16L54.5455 1.00364Z" fill="#25286D"/>
</svg>
