<svg width="45" height="49" viewBox="0 0 45 49" fill="none" xmlns="http://www.w3.org/2000/svg">
<path d="M1.5 22.125H8.375C9.59058 22.125 10.7564 22.6079 11.6159 23.4674C12.4754 24.327 12.9583 25.4928 12.9583 26.7083V33.5833C12.9583 34.7989 12.4754 35.9647 11.6159 36.8242C10.7564 37.6838 9.59058 38.1667 8.375 38.1667H6.08333C4.86776 38.1667 3.70197 37.6838 2.84243 36.8242C1.98289 35.9647 1.5 34.7989 1.5 33.5833V22.125ZM1.5 22.125C1.5 19.4165 2.03348 16.7345 3.06998 14.2322C4.10649 11.7298 5.62571 9.45613 7.54092 7.54092C9.45613 5.62571 11.7298 4.10649 14.2322 3.06998C16.7345 2.03348 19.4165 1.5 22.125 1.5C24.8335 1.5 27.5155 2.03348 30.0178 3.06998C32.5202 4.10649 34.7939 5.62571 36.7091 7.54092C38.6243 9.45613 40.1435 11.7298 41.18 14.2322C42.2165 16.7345 42.75 19.4165 42.75 22.125M42.75 22.125V33.5833M42.75 22.125H35.875C34.6594 22.125 33.4936 22.6079 32.6341 23.4674C31.7746 24.327 31.2917 25.4928 31.2917 26.7083V33.5833C31.2917 34.7989 31.7746 35.9647 32.6341 36.8242C33.4936 37.6838 34.6594 38.1667 35.875 38.1667H38.1667C39.3822 38.1667 40.548 37.6838 41.4076 36.8242C42.2671 35.9647 42.75 34.7989 42.75 33.5833M42.75 33.5833V38.1667C42.75 40.5978 41.7842 42.9294 40.0651 44.6485C38.3461 46.3676 36.0145 47.3333 33.5833 47.3333H22.125" stroke="white" stroke-width="3" stroke-linecap="round" stroke-linejoin="round"/>
</svg>
