<svg width="263" height="156" viewBox="0 0 263 156" fill="none" xmlns="http://www.w3.org/2000/svg">
<g filter="url(#filter0_d_744_176)">
<path d="M251.85 54.671C251.317 54.0672 250.733 53.5165 250.11 53.0245C249.437 49.7062 247.678 46.6843 244.985 44.3445C241.904 41.6693 238.061 40.2575 233.866 40.2575C231.492 40.2575 229.184 40.7048 227.045 41.5658C224.433 40.4085 221.462 39.8215 218.157 39.8215C216.046 39.8215 213.842 40.1793 211.616 40.8837C209.046 41.6972 206.63 43.0279 204.438 44.8337C202.544 46.3936 200.882 48.3225 199.483 50.5812C199.474 50.5812 199.466 50.5784 199.457 50.5756C197.849 50.2737 196.142 50.1283 194.243 50.1283C192.343 50.1283 190.52 50.3492 188.55 50.7825C188.458 50.8021 188.366 50.8244 188.274 50.8468C188.816 50.0417 189.313 49.203 189.765 48.3281C191.089 45.7674 191.952 42.8993 192.329 39.8047C193.064 33.7888 191.659 29.3972 189.961 26.4284L190.137 24.9775C190.603 21.1477 189.411 17.304 186.855 14.4134C184.299 11.5229 180.632 9.8708 176.778 9.8708H163.893C162.005 8.90916 159.91 8.40318 157.782 8.40318C156.458 8.40318 155.123 8.59886 153.818 9.00141C153.061 9.23623 152.338 9.53255 151.648 9.88757C151.441 9.87919 151.237 9.8708 151.031 9.8708H137.364C136.582 9.8708 135.817 9.93789 135.068 10.0665C134.415 9.96025 133.761 9.89037 133.116 9.85123C132.356 9.8093 131.828 9.78973 131.353 9.78973C128.778 9.78973 126.234 10.2174 123.792 11.0617C123.198 11.2657 122.614 11.495 122.044 11.7466C120.809 11.2014 119.513 10.7542 118.162 10.4075C115.838 9.81489 113.399 9.51298 110.911 9.51298C109.087 9.51298 107.182 9.70307 105.252 10.0749C102.964 10.5166 100.772 11.2546 98.7328 12.2693C97.9954 12.6355 97.2859 13.0437 96.6016 13.4853C95.5151 12.6663 94.3364 11.9702 93.0823 11.4139C90.5853 10.3097 87.8564 9.7506 84.9768 9.7506C82.8456 9.7506 80.9435 10.0106 79.2537 10.4411C78.008 10.0665 76.7036 9.8708 75.3769 9.8708H73.5921C72.648 7.64281 71.1844 5.62169 69.2656 3.98634C66.1904 1.37817 62.3778 0 58.244 0C54.5124 0 50.9484 1.10141 47.9375 3.18404C45.4041 4.9368 43.4741 7.23188 42.2675 9.8708H26.777C19.9758 9.8708 14.2415 14.9502 13.4176 21.7068L11.1272 40.4588C10.9876 41.5994 10.9959 42.7427 11.144 43.8637C11.0406 44.1404 10.9429 44.42 10.8535 44.7023C10.4653 45.9072 10.1943 47.1204 10.0491 48.3085L9.93736 49.2198C9.65805 51.5093 9.97647 53.8044 10.82 55.8982C9.59661 57.651 8.77544 59.714 8.49892 61.9672L6.20858 80.7192C6.06892 81.8597 6.0773 83.0031 6.22534 84.1213C6.12199 84.398 6.02703 84.6748 5.93765 84.9515C5.54941 86.1591 5.27568 87.3752 5.13044 88.5688L5.01872 89.4802C4.73941 91.7697 5.05782 94.0619 5.90134 96.153C4.67796 97.9057 3.85679 99.9688 3.58027 102.222L1.28993 120.974C1.15028 122.114 1.15866 123.258 1.30669 124.376C1.20335 124.653 1.10838 124.93 1.019 125.206C0.627967 126.417 0.357036 127.638 0.211795 128.821L0.100071 129.732C-0.369169 133.562 0.826277 137.408 3.38196 140.296C5.93765 143.184 9.60778 144.839 13.4623 144.839H15.7079C16.5319 144.995 17.3754 145.076 18.2273 145.076C21.6712 145.076 24.8441 143.76 27.2518 141.579C33.9273 141.188 38.4633 138.499 41.2424 136.078H49.1497C51.0574 136.078 52.9036 135.891 54.6632 135.527C55.8838 135.885 57.1603 136.078 58.4563 136.078H71.2906C73.7653 136.078 76.1422 135.768 78.3515 135.155C80.2313 134.635 81.9881 133.867 83.6109 132.86C86.0298 134.921 89.1133 136.075 92.331 136.075H95.6967C97.2189 136.075 98.6881 135.821 100.062 135.348C101.45 135.823 102.922 136.075 104.42 136.075H107.785C109.307 136.075 110.777 135.821 112.151 135.348C113.539 135.823 115.011 136.075 116.508 136.075H119.874C120.633 136.075 121.382 136.008 122.111 135.885C122.846 136.008 123.591 136.075 124.345 136.075H127.711C129.097 136.075 130.437 135.86 131.702 135.468C133.336 136.041 135.074 136.346 136.85 136.346C138.741 136.346 140.599 136.005 142.344 135.359C142.489 135.399 142.635 135.44 142.783 135.477C144.584 135.927 146.414 136.153 148.218 136.153C149.377 136.153 150.567 136.044 151.768 135.829C152.606 135.991 153.461 136.075 154.327 136.075H167.398C167.641 136.075 167.882 136.067 168.122 136.053C168.368 136.067 168.616 136.075 168.865 136.075H173.579C174.239 136.075 174.889 136.028 175.523 135.935C176.16 136.028 176.808 136.075 177.459 136.075H182.213C183.082 136.075 183.933 135.991 184.76 135.832C185.584 135.988 186.428 136.075 187.282 136.075H202.295C202.561 136.075 202.82 136.064 203.083 136.05C203.348 136.067 203.614 136.075 203.879 136.075H218.892C219.14 136.075 219.389 136.067 219.638 136.053C219.889 136.067 220.143 136.075 220.397 136.075H225.112C225.771 136.075 226.422 136.028 227.056 135.935C227.693 136.028 228.341 136.075 228.992 136.075H233.746C240.547 136.075 246.281 130.996 247.105 124.239L248.136 115.802C250.426 113.7 251.993 110.804 252.395 107.511L252.641 105.49C253.107 101.66 251.915 97.8163 249.359 94.9257C248.826 94.3219 248.242 93.7712 247.619 93.2792C247.435 92.3791 247.169 91.4985 246.831 90.6487C248.298 88.7757 249.284 86.4946 249.591 83.9843L250.621 75.5475C252.912 73.4454 254.479 70.552 254.881 67.2562L255.127 65.2351C255.596 61.4053 254.401 57.5587 251.845 54.671H251.85ZM93.532 52.7533C93.0069 53.1391 92.5125 53.5668 92.0489 54.0252C91.8171 53.8407 91.5796 53.6618 91.3394 53.4885C91.9651 53.1978 92.5768 52.8763 93.1689 52.5241C93.289 52.6051 93.4119 52.6778 93.532 52.7561V52.7533Z" fill="#A770AF"/>
</g>
<path d="M45.5635 38.0017C45.1948 41.0152 44.1474 43.3131 42.424 44.9009C40.6979 46.4859 38.3712 47.2799 35.4385 47.2799H31.2013C30.5142 47.2799 30.0003 47.3917 29.654 47.6181C29.3104 47.8417 28.9976 48.1269 28.7183 48.4707L28.6987 48.6301C28.601 48.7894 28.5032 48.9879 28.4082 49.2255C28.3133 49.4631 28.2407 49.793 28.1876 50.2151L28.1429 50.5729C28.1289 50.6791 28.1094 50.7323 28.0842 50.7323L28.0926 50.654C28.0731 50.6009 28.0675 50.5478 28.0731 50.4946H23.3192L23.4309 49.5833C23.4728 49.2395 23.5566 48.8705 23.6851 48.4735C23.8136 48.0766 23.9784 47.6936 24.1823 47.3246C24.3164 47.087 24.5175 46.841 24.7856 46.5922C25.0537 46.3406 25.3833 46.1169 25.7799 45.9185C26.1738 45.72 26.6402 45.5606 27.1849 45.4432C27.7267 45.3258 28.3691 45.2643 29.1065 45.2643H35.4441C36.4216 45.2643 37.2372 45.0603 37.8964 44.6493C38.5528 44.2384 39.0946 43.7045 39.5192 43.0447C39.9437 42.385 40.2649 41.6358 40.4856 40.8056C40.7063 39.9725 40.8683 39.1339 40.9716 38.2868C41.1336 36.9646 41.2006 35.9163 41.1783 35.1363C41.1559 34.3564 41.0749 33.7694 40.9381 33.3724C40.8012 32.9754 40.628 32.7183 40.4186 32.6008C40.2091 32.4806 40.0108 32.4219 39.8264 32.4219C39.6952 32.4219 39.5248 32.4695 39.3153 32.5617C39.1058 32.654 38.9298 32.7406 38.7902 32.8189L38.7818 32.8972L38.3712 33.3333L37.3462 41.7364H32.5923L34.6341 25.0084H31.3075L29.2657 41.7364H24.5119L26.8022 22.9844H45.4573L45.2115 25.0056H39.3879L38.7064 30.5965C38.5584 30.7279 38.5109 30.781 38.5667 30.7558C38.6226 30.7307 38.6785 30.7027 38.7343 30.6776L39.4019 30.4008C39.5387 30.3477 39.7175 30.303 39.9326 30.261C40.1476 30.2219 40.5079 30.2023 41.0079 30.2023C41.7732 30.2023 42.4743 30.3617 43.1083 30.6776C43.7424 30.9935 44.2647 31.4771 44.6752 32.1256C45.083 32.7742 45.3735 33.5849 45.5467 34.5633C45.7171 35.5417 45.7227 36.6906 45.5607 38.0129L45.5635 38.0017ZM38.7818 32.8888C38.8377 32.8636 38.8963 32.8245 38.955 32.7686L38.8656 32.8468C38.8349 32.8748 38.8042 32.9139 38.7734 32.9643L38.7846 32.886L38.7818 32.8888Z" fill="white"/>
<path d="M68.4278 32.0948C68.196 33.9986 67.8133 35.564 67.2798 36.7912C66.7463 38.0212 66.0788 39.0052 65.2744 39.7433C64.47 40.4841 63.5427 40.9984 62.4897 41.2891C61.4367 41.5799 60.2775 41.7252 59.0095 41.7252H46.1752L48.4655 22.9732H53.2585L51.2195 39.6622H54.3869L55.7192 28.7599C55.9259 27.0686 56.6186 25.6625 57.8001 24.5387C58.9815 23.4149 60.6658 22.853 62.8584 22.853C63.8611 22.853 64.7521 23.0263 65.5286 23.3674C66.305 23.7112 66.9447 24.2536 67.4502 24.9916C67.953 25.7324 68.2937 26.6912 68.4669 27.8653C68.6401 29.0422 68.6261 30.4483 68.4278 32.0865V32.0948ZM61.3808 15.842C61.2886 16.6079 60.8641 17.2621 60.1127 17.8044C59.3586 18.3467 58.5207 18.6179 57.5962 18.6179C56.5934 18.6179 55.7723 18.3467 55.141 17.8044C54.507 17.2621 54.2361 16.6079 54.331 15.842C54.4232 15.076 54.8533 14.4275 55.6186 13.8991C56.3812 13.3708 57.2666 13.1052 58.2693 13.1052C59.1938 13.1052 59.9647 13.3708 60.5876 13.8991C61.2104 14.4275 61.473 15.076 61.3808 15.842ZM63.4645 31.5413C63.5622 30.7474 63.6432 29.9619 63.713 29.182C63.7829 28.402 63.7996 27.7088 63.7689 27.1021C63.7382 26.4955 63.632 26.0063 63.4533 25.6345C63.2745 25.2655 62.9868 25.0782 62.5902 25.0782C62.1405 25.0782 61.7774 25.2376 61.5037 25.5534C61.2272 25.8693 61.0149 26.2551 60.8669 26.7024C60.7188 27.1525 60.6099 27.6081 60.5401 28.0694C60.4703 28.5334 60.42 28.8968 60.3865 29.1596L59.1044 39.665C59.9284 39.6119 60.5959 39.4022 61.1043 39.0304C61.6098 38.6614 62.0065 38.1778 62.2914 37.5824C62.5763 36.9869 62.7829 36.3132 62.9142 35.5612C63.0455 34.8092 63.1628 34.0097 63.2661 33.1627L63.4645 31.5385V31.5413Z" fill="white"/>
<path d="M90.5687 32.0948C90.3368 33.9986 89.9542 35.564 89.4207 36.7912C88.8872 38.0212 88.2197 39.0052 87.4153 39.7433C86.6108 40.4841 85.6835 40.9984 84.6305 41.2891C83.5775 41.5799 82.4184 41.7252 81.1503 41.7252H68.316L70.6064 22.9732H75.3993L73.3604 39.6622H76.5277L77.8601 28.7599C78.0668 27.0686 78.7594 25.6625 79.9409 24.5387C81.1224 23.4149 82.8066 22.853 84.9992 22.853C86.0019 22.853 86.8929 23.0263 87.6694 23.3674C88.4459 23.7112 89.0855 24.2536 89.5911 24.9916C90.0938 25.7324 90.4346 26.6912 90.6078 27.8653C90.7809 29.0422 90.767 30.4483 90.5687 32.0865V32.0948ZM85.6053 31.5413C85.7031 30.7474 85.7841 29.9619 85.8539 29.182C85.9237 28.402 85.9405 27.7088 85.9098 27.1021C85.879 26.4955 85.7729 26.0063 85.5942 25.6345C85.4154 25.2655 85.1277 25.0782 84.7311 25.0782C84.2814 25.0782 83.9183 25.2376 83.6446 25.5535C83.3681 25.8693 83.1558 26.2551 83.0077 26.7024C82.8597 27.1525 82.7508 27.6081 82.6809 28.0694C82.6111 28.5334 82.5608 28.8968 82.5273 29.1596L81.2453 39.665C82.0693 39.6119 82.7368 39.4022 83.2452 39.0304C83.7507 38.6614 84.1473 38.1778 84.4322 37.5824C84.7171 36.9869 84.9238 36.3132 85.0551 35.5612C85.1864 34.8092 85.3037 34.0097 85.407 33.1627L85.6053 31.5385V31.5413Z" fill="white"/>
<path d="M104.484 41.728C104.087 41.728 103.61 41.7085 103.045 41.6693C102.481 41.6302 101.942 41.5184 101.423 41.3311C100.903 41.1466 100.476 40.8698 100.138 40.498C99.7998 40.129 99.6741 39.6007 99.7579 38.913C99.8194 38.4126 99.9953 37.9877 100.289 37.6438C100.582 37.3 100.945 37.0288 101.378 36.8304C101.811 36.6319 102.302 36.4921 102.855 36.4138C103.406 36.3356 103.959 36.2936 104.515 36.2936H108.911C110.891 36.2936 112.411 35.7932 113.472 34.7869C114.531 33.7833 115.184 32.2905 115.424 30.3085C115.533 29.4112 115.5 28.5977 115.327 27.8709C115.151 27.1441 114.863 26.5291 114.464 26.0287C114.061 25.5283 113.57 25.1369 112.983 24.8602C112.397 24.5834 111.746 24.4436 111.034 24.4436C110.478 24.4436 109.883 24.5694 109.246 24.821C108.606 25.0726 107.919 25.5143 107.182 26.1489L107.003 27.6165H110.092C111.307 27.6165 112.246 27.8681 112.911 28.3685C113.575 28.8717 113.857 29.5454 113.754 30.3896C113.679 30.999 113.416 31.4798 112.964 31.8377C112.511 32.1955 111.975 32.4722 111.358 32.6707C110.74 32.8692 110.081 33.0006 109.389 33.0677C108.693 33.1348 108.07 33.1683 107.514 33.1683C106.721 33.1683 105.925 33.0956 105.126 32.9503C104.325 32.8049 103.604 32.5477 102.962 32.1787C102.319 31.8097 101.816 31.3261 101.456 30.7307C101.093 30.1352 100.967 29.3776 101.082 28.4523C101.208 27.4208 101.613 26.5374 102.297 25.7966C102.981 25.0586 103.802 24.4492 104.758 23.974C105.713 23.4988 106.738 23.1549 107.836 22.9425C108.93 22.73 109.967 22.6266 110.944 22.6266C112.318 22.6266 113.626 22.7859 114.866 23.1018C116.109 23.4177 117.192 23.8957 118.117 24.5275C119.041 25.1621 119.751 25.9616 120.24 26.926C120.728 27.8905 120.896 29.0198 120.737 30.3141C120.566 31.7147 120.153 32.872 119.502 33.7833C118.849 34.6946 118.036 35.4159 117.061 35.9442C116.086 36.4725 115.003 36.8499 113.813 37.0736C112.623 37.2972 111.394 37.4118 110.129 37.4118H106.168C105.797 37.4118 105.528 37.4985 105.364 37.669C105.196 37.8423 105.07 38.284 104.984 38.9969C104.928 39.4469 104.939 39.7824 105.017 40.0088C105.096 40.2325 105.207 40.4058 105.35 40.5232C105.495 40.6434 105.665 40.7077 105.861 40.7217C106.056 40.7356 106.246 40.7412 106.433 40.7412H148.894L148.774 41.7308H104.489L104.484 41.728ZM109.109 30.1129C109.221 29.1876 109.109 28.5865 108.774 28.3098C108.439 28.033 107.992 27.8932 107.439 27.8932H106.171L106.065 28.7654C105.984 29.6376 105.992 30.3253 106.09 30.8257C106.188 31.3289 106.313 31.6979 106.47 31.9355C106.626 32.1731 106.785 32.3185 106.95 32.3716C107.115 32.4247 107.252 32.4499 107.358 32.4499C107.727 32.4499 108.081 32.3045 108.422 32.0138C108.76 31.723 108.992 31.0885 109.109 30.1101V30.1129ZM148.671 24.9999L147.157 37.409H142.403L143.917 24.9999H141.423L139.909 37.409H135.155L135.764 32.4135C135.895 31.3289 135.917 30.3393 135.831 29.4391C135.741 28.5418 135.526 27.773 135.18 27.1413C134.834 26.5067 134.373 26.0175 133.795 25.6736C133.216 25.3298 132.49 25.1593 131.619 25.1593C131.303 25.1593 130.954 25.1984 130.574 25.2767C130.194 25.355 129.803 25.5283 129.401 25.7911C128.999 26.0566 128.597 26.42 128.197 26.8813C127.798 27.3453 127.421 27.9464 127.066 28.6844L126.926 29.8333H129.778C131.205 29.8333 132.267 30.1632 132.965 30.8229C133.663 31.4854 133.951 32.3157 133.828 33.3193C133.739 34.0601 133.504 34.6862 133.124 35.2034C132.744 35.7178 132.27 36.1427 131.703 36.4725C131.133 36.8024 130.485 37.04 129.753 37.1854C129.021 37.3308 128.261 37.4034 127.468 37.4034C126.94 37.4034 126.343 37.3168 125.678 37.1463C125.013 36.9757 124.404 36.6515 123.857 36.1762C123.307 35.701 122.868 35.0273 122.538 34.1551C122.209 33.2829 122.131 32.148 122.301 30.7446C122.449 29.5286 122.801 28.4328 123.357 27.4544C123.913 26.4759 124.6 25.6513 125.421 24.9776C126.242 24.3039 127.169 23.7895 128.203 23.4317C129.236 23.0739 130.295 22.895 131.379 22.895C131.591 22.895 131.926 22.9089 132.384 22.9341C132.842 22.9592 133.348 23.0515 133.895 23.2108C134.443 23.3702 134.998 23.6274 135.563 23.9824C136.127 24.3402 136.632 24.849 137.079 25.5087L137.389 22.9704H151.056L150.81 24.9916H148.671V24.9999ZM129.379 33.1264C129.412 32.8636 129.44 32.5645 129.468 32.2346C129.496 31.9047 129.482 31.5861 129.426 31.2842C129.37 30.9794 129.264 30.7223 129.105 30.5098C128.946 30.3001 128.708 30.1939 128.39 30.1939H126.725L126.488 32.1368C126.446 32.4806 126.412 32.8636 126.387 33.2857C126.362 33.7078 126.379 34.0992 126.443 34.4542C126.505 34.812 126.633 35.1084 126.829 35.346C127.024 35.5836 127.32 35.7038 127.717 35.7038C128.032 35.7038 128.359 35.5137 128.697 35.1279C129.035 34.7449 129.261 34.0768 129.376 33.1264H129.379Z" fill="white"/>
<path d="M178.993 37.8032C178.808 39.31 178.423 40.6322 177.836 41.7672C177.247 42.9021 176.521 43.8945 175.652 44.7416C174.783 45.5858 173.814 46.2819 172.744 46.8242C171.675 47.3665 170.577 47.8082 169.454 48.152C168.329 48.4959 167.206 48.7335 166.08 48.8649C164.954 48.9963 163.904 49.0634 162.927 49.0634C160.418 49.0634 158.257 48.6468 156.444 47.8138C154.631 46.9807 153.156 45.8709 152.02 44.4844C150.883 43.0978 150.084 41.51 149.629 39.7265C149.173 37.943 149.059 36.112 149.288 34.2362C149.47 32.7574 149.841 31.3764 150.408 30.0933C150.972 28.813 151.654 27.6752 152.447 26.6828C153.24 25.6904 154.086 24.8798 154.983 24.2452C155.88 23.6106 156.759 23.2025 157.628 23.0152L157.812 21.5084C157.835 21.5336 157.905 21.6063 158.025 21.7265C158.142 21.8467 158.259 21.9641 158.377 22.0843C158.494 22.2045 158.6 22.3079 158.695 22.403C158.79 22.4952 158.826 22.5148 158.807 22.4617L158.857 22.3834L158.818 22.7021L158.575 22.4253L158.257 25.0419C157.734 25.2012 157.237 25.5563 156.76 26.1126C156.282 26.6689 155.841 27.3621 155.436 28.1952C155.031 29.0282 154.687 29.9591 154.402 30.9907C154.117 32.0222 153.908 33.0928 153.774 34.2026C153.55 36.0253 153.601 37.7249 153.924 39.296C154.246 40.8698 154.821 42.2284 155.645 43.3802C156.469 44.5291 157.528 45.4292 158.821 46.075C160.114 46.7236 161.619 47.0478 163.337 47.0478C164.368 47.0478 165.496 46.936 166.725 46.7096C167.954 46.4859 169.127 46.0163 170.245 45.3035C171.362 44.5906 172.337 43.5786 173.169 42.2704C174.001 40.9621 174.549 39.2373 174.811 37.096C174.982 35.6954 174.887 34.5856 174.524 33.7666C174.16 32.9475 173.756 32.5365 173.306 32.5365H172.909C172.778 32.5365 172.655 32.5505 172.549 32.5757L172.501 32.9726C172.42 33.0006 172.295 33.0313 172.133 33.0705C171.971 33.1096 171.862 33.1292 171.809 33.1292L171.102 38.9158L170.965 40.0256L170.756 41.7308H166.041L168.083 25.0028H164.756L162.714 41.7308H157.921L160.212 22.9788H176.808L176.563 25H172.8L172.191 29.9955H173.3L173.256 30.3533H172.306C172.275 30.3812 172.353 30.3924 172.538 30.3924H173.806C175.655 30.3924 177.057 31.027 178.009 32.2961C178.965 33.5653 179.294 35.4019 179.001 37.806L178.993 37.8032ZM158.812 22.6993H159.05L158.952 22.8586L158.812 22.6993ZM172.532 32.967C172.529 32.995 172.51 33.0873 172.479 33.2438C172.446 33.4031 172.434 33.4563 172.44 33.4031L172.493 32.967H172.532ZM173.292 29.9955L173.356 29.4811L173.334 29.9955H173.295H173.292Z" fill="white"/>
<path d="M40.6504 78.2564C40.2817 81.2699 39.2343 83.5678 37.5109 85.1556C35.7848 86.7407 33.4582 87.5346 30.5254 87.5346H26.2883C25.6012 87.5346 25.0872 87.6464 24.7409 87.8728C24.3973 88.0965 24.0845 88.3816 23.8052 88.7254L23.7857 88.8848C23.6879 89.0441 23.5901 89.2426 23.4952 89.4802C23.4002 89.7178 23.3276 90.0477 23.2745 90.4698L23.2298 90.8276C23.2159 90.9339 23.1963 90.987 23.1712 90.987L23.1823 90.9087C23.1628 90.8556 23.1544 90.8025 23.1628 90.7494H18.4089L18.5207 89.838C18.5626 89.4942 18.6464 89.1252 18.7748 88.7282C18.9033 88.3313 19.0681 87.9483 19.272 87.5793C19.4061 87.3417 19.6072 87.0957 19.8753 86.8469C20.1434 86.5953 20.473 86.3717 20.8697 86.1732C21.2635 85.9747 21.7299 85.8154 22.2746 85.6979C22.8164 85.5777 23.4589 85.519 24.1962 85.519H30.5338C31.5114 85.519 32.3269 85.315 32.9861 84.904C33.6425 84.4931 34.1844 83.9592 34.6089 83.2994C35.0335 82.6397 35.3547 81.8933 35.5753 81.0603C35.796 80.2272 35.958 79.3886 36.0613 78.5443C36.2233 77.2221 36.2904 76.1738 36.268 75.3938C36.2457 74.6139 36.1647 74.0269 36.0278 73.6299C35.8909 73.233 35.7178 72.9758 35.5083 72.8584C35.2988 72.7381 35.1005 72.6794 34.9162 72.6794C34.7849 72.6794 34.6145 72.727 34.405 72.8192C34.1955 72.9115 34.0196 72.9981 33.8799 73.0764L33.8687 73.1547L33.4582 73.5908L32.4331 81.9939H27.6792L29.721 65.2659H26.3944L24.3527 81.9939H19.5988L21.8891 63.2419H40.5442L40.2985 65.2631H34.4748L33.7933 70.854C33.6453 70.9854 33.5978 71.0385 33.6537 71.0133C33.7095 70.9882 33.7654 70.9602 33.8213 70.9351L34.4888 70.6583C34.6285 70.6052 34.8044 70.5605 35.0195 70.5185C35.2346 70.4794 35.5949 70.4598 36.0948 70.4598C36.8601 70.4598 37.5612 70.6192 38.1952 70.9351C38.8293 71.2538 39.3516 71.7346 39.7622 72.3831C40.17 73.0317 40.4604 73.8424 40.6336 74.8208C40.804 75.7992 40.8096 76.9481 40.6476 78.2704L40.6504 78.2564ZM33.8659 73.1435C33.9218 73.1183 33.9805 73.0792 34.0391 73.0233L33.9497 73.1016C33.919 73.1267 33.8883 73.1687 33.8576 73.219L33.8659 73.1407V73.1435Z" fill="white"/>
<path d="M63.5119 72.3496C63.2801 74.2533 62.8974 75.8188 62.3639 77.046C61.8305 78.276 61.1629 79.26 60.3585 80.0008C59.5541 80.7416 58.6268 81.256 57.5766 81.5467C56.5236 81.8374 55.3644 81.9828 54.0964 81.9828H41.2621L43.5524 63.2308H48.3454L46.3092 79.9197H49.4766L50.8089 69.0174C51.0156 67.3262 51.7083 65.92 52.8898 64.7963C54.0712 63.6725 55.7555 63.1106 57.9481 63.1106C58.9508 63.1106 59.8418 63.2839 60.6183 63.6249C61.3947 63.9688 62.0344 64.5111 62.5399 65.2491C63.0427 65.9899 63.3806 66.9488 63.5566 68.1229C63.7298 69.2998 63.7158 70.7059 63.5175 72.344L63.5119 72.3496ZM56.4649 56.0968C56.37 56.8627 55.9482 57.5168 55.1941 58.0592C54.4399 58.6015 53.602 58.8727 52.6803 58.8727C51.6776 58.8727 50.8564 58.6015 50.2251 58.0592C49.5911 57.5168 49.323 56.8627 49.4151 56.0968C49.5073 55.3308 49.9375 54.6822 50.7028 54.1539C51.4681 53.6256 52.3507 53.36 53.3534 53.36C54.2779 53.36 55.0516 53.6256 55.6717 54.1539C56.2945 54.6822 56.5571 55.3308 56.4649 56.0968ZM58.5486 71.7961C58.6463 71.0022 58.7273 70.2167 58.7972 69.4367C58.867 68.6568 58.8837 67.9635 58.853 67.3541C58.8223 66.7475 58.7162 66.2583 58.5374 65.8865C58.3586 65.5175 58.071 65.333 57.6743 65.333C57.2246 65.333 56.8615 65.4923 56.5878 65.8082C56.3113 66.1241 56.099 66.5071 55.951 66.9571C55.803 67.4072 55.694 67.8629 55.6242 68.3241C55.5544 68.7854 55.5041 69.1516 55.4706 69.4144L54.1885 79.9197C55.0125 79.8666 55.6801 79.657 56.1856 79.2852C56.694 78.9162 57.0878 78.4325 57.3727 77.8371C57.6576 77.2417 57.8643 76.568 57.9955 75.816C58.1268 75.0612 58.2441 74.2645 58.3475 73.4175L58.5458 71.7933L58.5486 71.7961Z" fill="white"/>
<path d="M85.6528 72.3496C85.421 74.2533 85.0383 75.8188 84.5048 77.046C83.9713 78.276 83.3038 79.26 82.4994 80.0008C81.695 80.7416 80.7677 81.256 79.7174 81.5467C78.6644 81.8374 77.5053 81.9828 76.2372 81.9828H63.403L65.6933 63.2308H70.4863L68.4501 79.9198H71.6175L72.9498 69.0174C73.1565 67.3262 73.8491 65.92 75.0306 64.7963C76.2121 63.6725 77.8963 63.1106 80.0889 63.1106C81.0916 63.1106 81.9826 63.2839 82.7591 63.625C83.5356 63.9688 84.1752 64.5111 84.6808 65.2491C85.1835 65.9899 85.5215 66.9488 85.6975 68.1229C85.8706 69.2998 85.8567 70.7059 85.6584 72.344L85.6528 72.3496ZM80.6894 71.7961C80.7872 71.0022 80.8682 70.2167 80.938 69.4367C81.0079 68.6568 81.0246 67.9635 80.9939 67.3541C80.9632 66.7475 80.857 66.2583 80.6783 65.8865C80.4995 65.5175 80.2118 65.333 79.8152 65.333C79.3655 65.333 79.0024 65.4923 78.7287 65.8082C78.4522 66.1241 78.2399 66.5071 78.0919 66.9572C77.9438 67.4072 77.8349 67.8629 77.7651 68.3241C77.6952 68.7854 77.645 69.1516 77.6114 69.4144L76.3294 79.9198C77.1534 79.8666 77.8209 79.657 78.3265 79.2852C78.8348 78.9162 79.2286 78.4326 79.5135 77.8371C79.7984 77.2417 80.0051 76.568 80.1364 75.816C80.2677 75.0612 80.385 74.2645 80.4883 73.4175L80.6866 71.7933L80.6894 71.7961Z" fill="white"/>
<path d="M119.793 78.2173C119.424 81.2308 118.377 83.5343 116.651 85.1361C114.924 86.7351 112.62 87.5346 109.743 87.5346H102.495C101.808 87.5346 101.33 87.6073 101.062 87.7526C100.794 87.898 100.565 88.1021 100.372 88.3676C100.132 88.6053 99.9283 88.9239 99.7607 89.3181C99.5931 89.7151 99.4842 90.1232 99.4311 90.5481L99.406 90.7466H94.5348L94.6465 89.8353C94.6884 89.4914 94.7694 89.1476 94.8923 88.8037C95.0124 88.4599 95.1409 88.1692 95.275 87.9316C95.4928 87.666 95.7442 87.3892 96.0291 87.0985C96.314 86.8078 96.6575 86.5422 97.057 86.3046C97.4564 86.067 97.92 85.8741 98.4535 85.7287C98.987 85.5834 99.635 85.5107 100.4 85.5107H109.71C110.687 85.5107 111.503 85.3066 112.162 84.8957C112.818 84.4847 113.36 83.9508 113.785 83.2911C114.209 82.6313 114.531 81.8849 114.751 81.0519C114.972 80.2188 115.134 79.3802 115.237 78.536C115.41 77.1103 115.444 76.0396 115.332 75.324C115.22 74.6111 115.056 74.0688 114.838 73.6998L114.852 73.5796C114.665 73.37 114.483 73.1827 114.304 73.0233C114.126 72.864 113.986 72.7717 113.883 72.7466H112.894L112.539 75.6399C112.503 75.9306 112.447 76.294 112.366 76.7301C112.285 77.1662 112.137 77.6219 111.922 78.0971C111.704 78.5723 111.397 79.0476 110.995 79.5256C110.592 80.0008 110.067 80.4229 109.414 80.7947C108.76 81.1665 107.944 81.4684 106.964 81.706C105.984 81.9437 104.822 82.0639 103.476 82.0639C102.92 82.0639 102.205 81.9912 101.325 81.8458C100.445 81.7004 99.6071 81.3762 98.8082 80.8758C98.0122 80.3754 97.3642 79.6653 96.8698 78.754C96.3727 77.8427 96.2218 76.6071 96.4118 75.0472C96.4928 74.3875 96.6883 73.7977 97.0039 73.2833C97.3167 72.7689 97.6826 72.3245 98.096 71.9554C98.5094 71.5864 98.9423 71.2957 99.392 71.0833C99.8389 70.8736 100.252 70.7394 100.629 70.6863L101.54 63.2336H119.405L119.159 65.2547H113.813L113.154 70.6472H115.017C115.598 70.6472 116.215 70.7394 116.866 70.9239C117.516 71.1084 118.092 71.4662 118.597 71.9946C119.1 72.5229 119.474 73.2889 119.723 74.2953C119.969 75.2988 119.994 76.6071 119.798 78.2201L119.793 78.2173ZM99.4088 90.7438H99.4478L99.4367 90.8221C99.4283 90.9003 99.4115 90.973 99.3892 91.0401C99.3669 91.1072 99.3529 91.1659 99.3473 91.219C99.3436 91.2544 99.3436 91.2544 99.3473 91.219L99.406 90.7438H99.4088ZM108.143 72.7466H104.299C103.297 72.7466 102.526 73.0569 101.987 73.6775C101.448 74.298 101.118 75.1115 100.995 76.1151C100.833 77.4374 101.034 78.3822 101.601 78.9497C102.166 79.5172 102.869 79.8023 103.716 79.8023C104.562 79.8023 105.196 79.6709 105.704 79.4054C106.213 79.1426 106.609 78.8043 106.897 78.3934C107.185 77.9853 107.391 77.5408 107.514 77.0656C107.637 76.5903 107.724 76.1542 107.774 75.7573L108.143 72.7438V72.7466ZM106.087 65.2547L105.428 70.6472H108.4L109.059 65.2547H106.087Z" fill="white"/>
<path d="M167.284 65.2547L165.242 81.9828H160.488L162.53 65.2547H160.748C160.22 65.2547 159.701 65.333 159.195 65.4923C158.687 65.6517 158.151 65.8753 157.589 66.166L157.419 67.5526C157.673 67.8433 157.944 68.2263 158.229 68.7015C158.514 69.1768 158.771 69.7275 158.997 70.3453C159.223 70.9659 159.396 71.6591 159.514 72.4279C159.631 73.1938 159.636 74.0129 159.53 74.8851C159.357 76.3136 159.033 77.4961 158.564 78.4325C158.092 79.3718 157.525 80.1238 156.863 80.6913C156.198 81.2616 155.483 81.6641 154.715 81.9017C153.947 82.1393 153.179 82.2595 152.414 82.2595C151.78 82.2595 151.143 82.1337 150.5 81.8822C149.858 81.6306 149.296 81.2084 148.813 80.613C148.33 80.0176 147.964 79.2321 147.716 78.2536C147.464 77.2752 147.428 76.0592 147.607 74.6056C147.657 74.1834 147.819 73.6663 148.093 73.0597C148.364 72.453 148.69 71.838 149.07 71.2174C149.45 70.5968 149.844 70.007 150.257 69.4535C150.668 68.8972 151.037 68.4639 151.369 68.1452L151.514 66.9571L151.201 66.5993L151.226 66.4009C151.199 66.4009 151.157 66.3813 151.095 66.3421C151.034 66.303 150.989 66.2834 150.964 66.2834C150.699 66.071 150.324 65.8418 149.841 65.5902C149.358 65.3386 148.612 65.2128 147.609 65.2128C147.16 65.2128 146.651 65.2659 146.084 65.3721C145.517 65.4783 144.841 65.716 144.057 66.085L143.897 67.3932C144.118 67.7371 144.364 68.1676 144.632 68.682C144.9 69.1963 145.138 69.7778 145.35 70.4263C145.562 71.0749 145.727 71.7737 145.847 72.5285C145.967 73.2805 145.975 74.0688 145.875 74.8879C145.702 76.3164 145.378 77.4989 144.908 78.4353C144.436 79.3746 143.875 80.1266 143.227 80.6941C142.576 81.2644 141.867 81.6669 141.099 81.9045C140.331 82.1421 139.562 82.2623 138.797 82.2623C138.188 82.2623 137.565 82.1365 136.923 81.885C136.281 81.6334 135.719 81.2112 135.236 80.6158C134.753 80.0204 134.395 79.2348 134.158 78.2564C133.92 77.278 133.89 76.062 134.068 74.6083C134.122 74.1862 134.27 73.6635 134.518 73.0429C134.767 72.4223 135.071 71.8073 135.437 71.2007C135.8 70.5941 136.188 70.0182 136.599 69.4759C137.007 68.9335 137.417 68.5058 137.825 68.1872L137.996 66.8006C137.443 66.3505 136.697 65.9815 135.755 65.6908C134.814 65.4001 133.75 65.2547 132.56 65.2547C131.873 65.2547 131.183 65.3945 130.488 65.6712C129.792 65.948 129.141 66.3198 128.53 66.781C127.918 67.2451 127.357 67.793 126.843 68.4276C126.329 69.0621 125.91 69.7358 125.586 70.4487L125.46 71.4802C125.862 71.2174 126.256 71.019 126.642 70.8848C127.027 70.7534 127.457 70.6863 127.932 70.6863C128.329 70.6863 128.742 70.7646 129.169 70.9239L129.164 70.9631C130.342 71.2538 131.183 71.8939 131.683 72.8863C132.183 73.8759 132.351 75.0472 132.186 76.3946C132.049 77.5045 131.759 78.4298 131.312 79.1706C130.865 79.9114 130.337 80.4928 129.731 80.9149C129.125 81.337 128.488 81.6362 127.82 81.8067C127.153 81.98 126.527 82.0639 125.946 82.0639C125.259 82.0639 124.544 81.9716 123.801 81.7871C123.058 81.6026 122.407 81.2001 121.849 80.5767C121.29 79.9561 120.874 79.0364 120.6 77.8203C120.326 76.6043 120.315 74.9662 120.567 72.9059C120.74 71.4774 121.231 70.1635 122.039 68.9615C122.846 67.7594 123.832 66.7223 124.994 65.8501C126.156 64.978 127.429 64.2903 128.809 63.7899C130.192 63.2867 131.555 63.0351 132.901 63.0351C134.141 63.0351 135.202 63.1022 136.085 63.2336C136.965 63.365 137.699 63.5299 138.283 63.7284C138.867 63.9269 139.333 64.1449 139.688 64.3825C140.04 64.6201 140.325 64.8466 140.537 65.0562L140.529 65.1345C142.057 64.2903 143.336 63.7591 144.367 63.5495C145.397 63.3398 146.358 63.2336 147.257 63.2336C148.366 63.2336 149.305 63.2867 150.07 63.3929C150.835 63.4992 151.467 63.6249 151.967 63.7703C152.464 63.9157 152.86 64.075 153.156 64.2455C153.453 64.4189 153.698 64.5558 153.897 64.6621L153.852 65.0199L154.19 65.1792L154.198 65.101C154.712 64.7851 155.201 64.5139 155.665 64.2875C156.128 64.0638 156.62 63.8709 157.142 63.7116C157.662 63.5523 158.212 63.4349 158.79 63.3538C159.368 63.2755 160.025 63.2336 160.765 63.2336H170.032L169.787 65.2547H167.29H167.284ZM127.728 76.4729C127.776 76.076 127.801 75.6678 127.798 75.2429C127.798 74.8208 127.745 74.4378 127.642 74.094C127.538 73.7501 127.382 73.465 127.172 73.2414C126.963 73.0177 126.658 72.9031 126.262 72.9031C126.184 72.9031 126.036 72.9227 125.818 72.9618C125.6 73.0009 125.343 73.0597 125.044 73.1407L124.821 74.9634C124.633 76.4953 124.58 77.6778 124.664 78.5108C124.748 79.3439 125.17 79.7604 125.938 79.7604C126.544 79.7604 126.963 79.4753 127.192 78.9078C127.421 78.3403 127.597 77.5268 127.728 76.4701V76.4729ZM141.624 74.6111C141.777 73.342 141.766 72.1987 141.587 71.1811C141.409 70.1636 141.146 69.2327 140.8 68.3856L140.805 68.3465C140.462 68.7686 140.163 69.1851 139.9 69.5961C139.638 70.007 139.4 70.4487 139.183 70.9239C138.965 71.3991 138.783 71.9163 138.638 72.4698C138.493 73.0233 138.373 73.6579 138.286 74.3735C138.202 75.0612 138.144 75.7489 138.113 76.4366C138.082 77.1243 138.104 77.7449 138.183 78.2984C138.261 78.8547 138.389 79.3103 138.571 79.6654C138.752 80.0232 139.012 80.2021 139.356 80.2021C139.646 80.2021 139.909 80.0427 140.146 79.7269C140.384 79.411 140.599 78.9861 140.797 78.4577C140.993 77.9294 141.16 77.3283 141.294 76.6546C141.428 75.9809 141.54 75.3016 141.624 74.6139V74.6111ZM151.606 56.0968C151.511 56.8627 151.095 57.5168 150.358 58.0592C149.618 58.6015 148.76 58.8727 147.783 58.8727C146.805 58.8727 146.04 58.6015 145.406 58.0592C144.772 57.5168 144.503 56.8627 144.596 56.0968C144.688 55.3308 145.118 54.6822 145.883 54.1539C146.649 53.6256 147.506 53.36 148.456 53.36C149.405 53.36 150.227 53.6256 150.835 54.1539C151.444 54.6822 151.701 55.3308 151.609 56.0968H151.606ZM151.19 66.6413C151.126 66.5099 151.081 66.4428 151.056 66.4428L151.196 66.6021L151.19 66.6413ZM155.249 74.6111C155.419 73.2106 155.43 72.0337 155.282 71.0833C155.134 70.1328 154.841 69.2858 154.402 68.545L154.397 68.5841C154.179 68.8497 153.939 69.1935 153.676 69.6156C153.413 70.0378 153.156 70.5214 152.905 71.0637C152.654 71.606 152.43 72.2014 152.232 72.8472C152.034 73.4957 151.894 74.1499 151.813 74.8096C151.729 75.4973 151.679 76.1654 151.668 76.8112C151.654 77.4597 151.69 78.0356 151.774 78.536C151.858 79.0392 151.992 79.4417 152.182 79.7464C152.369 80.0511 152.634 80.2021 152.978 80.2021C153.268 80.2021 153.531 80.0427 153.768 79.7269C154.006 79.411 154.221 78.9861 154.419 78.4577C154.614 77.9294 154.782 77.3283 154.916 76.6546C155.05 75.9809 155.162 75.3016 155.246 74.6139L155.249 74.6111ZM153.997 64.7375C153.969 64.7375 153.933 64.7124 153.888 64.6593L154.039 63.4293C153.939 63.3762 153.944 63.351 154.047 63.351H154.168L153.997 64.7375Z" fill="white"/>
<path d="M221.023 56.572C220.97 56.9941 220.814 57.4106 220.554 57.8216C220.291 58.2325 219.931 58.5959 219.47 58.9118C219.009 59.2277 218.451 59.4793 217.794 59.6638C217.138 59.8483 216.401 59.9405 215.582 59.9405C214.764 59.9405 214.121 59.907 213.733 59.8427C213.345 59.7784 213.012 59.6778 212.739 59.5464L212.747 59.4681H212.588L212.599 59.3898C212.448 59.3367 212.306 59.2976 212.177 59.2724L212.04 60.3822C212.197 61.0447 212.39 61.6178 212.621 62.107C212.853 62.5962 213.063 62.9205 213.255 63.0771L213.236 63.2364H217.593L217.347 65.2575H214.496L212.454 81.9856H207.661L209.703 65.2575H207.96C207.432 65.2575 206.912 65.3358 206.407 65.4951C205.898 65.6545 205.362 65.8781 204.801 66.1688L204.636 67.5163C204.887 67.8321 205.155 68.2291 205.44 68.7043C205.725 69.1796 205.982 69.7303 206.211 70.3481C206.438 70.9687 206.605 71.6619 206.708 72.4307C206.812 73.1966 206.812 74.0157 206.706 74.8879C206.533 76.3164 206.208 77.4989 205.739 78.4354C205.267 79.3746 204.706 80.1266 204.058 80.6941C203.407 81.2644 202.698 81.6669 201.929 81.9045C201.161 82.1422 200.393 82.2624 199.628 82.2624C199.019 82.2624 198.396 82.1366 197.754 81.885C197.111 81.6334 196.542 81.2113 196.047 80.6158C195.553 80.0204 195.179 79.2349 194.93 78.2564C194.679 77.278 194.642 76.062 194.821 74.6084C194.874 74.1862 195.033 73.6691 195.307 73.0625C195.578 72.4559 195.905 71.8408 196.285 71.2203C196.664 70.5997 197.053 70.0098 197.452 69.4563C197.849 68.9 198.212 68.4667 198.541 68.148L198.687 66.96L198.583 66.8398L198.603 66.6804C198.553 66.6553 198.488 66.6413 198.41 66.6413C198.388 66.6161 198.363 66.6021 198.335 66.6021L198.301 66.563L198.31 66.4847C198.053 66.194 197.667 65.9089 197.145 65.6321C196.625 65.3554 195.863 65.2156 194.857 65.2156C194.355 65.2156 193.818 65.2827 193.249 65.4141C192.679 65.5455 192.003 65.7859 191.221 66.1269L191.062 67.4352C191.26 67.7539 191.503 68.1564 191.785 68.6456C192.067 69.1348 192.33 69.6967 192.57 70.3313C192.81 70.9659 192.986 71.6675 193.106 72.4335C193.223 73.1994 193.229 74.0185 193.123 74.8907C192.95 76.3192 192.626 77.5017 192.156 78.4381C191.684 79.3774 191.117 80.1294 190.455 80.6969C189.791 81.2672 189.076 81.6697 188.308 81.9073C187.539 82.1449 186.785 82.2651 186.045 82.2651C185.411 82.2651 184.774 82.1394 184.132 81.8878C183.489 81.6362 182.928 81.2141 182.445 80.6186C181.962 80.0232 181.604 79.2377 181.367 78.2592C181.129 77.2808 181.099 76.0648 181.277 74.6112C181.325 74.2142 181.478 73.7138 181.738 73.1044C181.998 72.4978 182.302 71.8828 182.657 71.2622C183.009 70.6416 183.392 70.0462 183.805 69.4787C184.218 68.9112 184.604 68.4555 184.961 68.1117L185.121 66.8034C184.568 66.3533 183.822 65.9843 182.881 65.6936C181.939 65.4029 180.9 65.2575 179.766 65.2575C179.079 65.2575 178.386 65.4029 177.694 65.6936C176.998 65.9843 176.336 66.3673 175.711 66.8425C175.085 67.3178 174.515 67.8797 173.998 68.5282C173.485 69.1768 173.052 69.8561 172.7 70.5689L172.58 71.5585C172.982 71.2957 173.395 71.0833 173.825 70.9239C174.253 70.7646 174.68 70.6863 175.102 70.6863C175.417 70.6863 175.831 70.7646 176.339 70.9239L176.334 70.9631C177.562 71.279 178.414 71.9275 178.889 72.9059C179.364 73.8843 179.518 75.0472 179.356 76.3947C179.219 77.5045 178.928 78.4298 178.481 79.1706C178.035 79.9114 177.507 80.4928 176.901 80.9149C176.294 81.3371 175.658 81.6362 174.99 81.8067C174.322 81.98 173.711 82.0639 173.155 82.0639C172.443 82.0639 171.714 81.9716 170.971 81.7871C170.228 81.6026 169.577 81.2001 169.018 80.5767C168.46 79.9561 168.052 79.0364 167.789 77.8204C167.53 76.6043 167.524 74.9662 167.775 72.9059C167.949 71.4774 168.44 70.1636 169.247 68.9615C170.055 67.7595 171.041 66.7223 172.203 65.8502C173.364 64.978 174.638 64.2903 176.018 63.7899C177.4 63.2867 178.764 63.0351 180.11 63.0351C181.378 63.0351 182.445 63.1022 183.313 63.2336C184.182 63.365 184.908 63.5299 185.492 63.7284C186.076 63.9269 186.542 64.1449 186.897 64.3825C187.252 64.6201 187.534 64.8466 187.746 65.0562L187.738 65.1345C188.503 64.7124 189.196 64.3741 189.821 64.1226C190.447 63.871 191.031 63.6809 191.575 63.5467C192.12 63.4153 192.626 63.3286 193.092 63.2895C193.559 63.2504 194.017 63.2308 194.466 63.2308C195.55 63.2308 196.472 63.2979 197.234 63.4293C197.997 63.5607 198.631 63.7144 199.139 63.8849C199.645 64.0583 200.053 64.2428 200.36 64.4412C200.667 64.6397 200.918 64.7907 201.117 64.8969L201.111 64.936L201.365 65.1345L201.371 65.0954C202.368 64.4888 203.348 64.0247 204.312 63.7088C205.276 63.3929 206.496 63.2336 207.974 63.2336H208.806L208.971 61.8862C208.58 61.1985 208.273 60.5192 208.052 59.8455C207.831 59.1718 207.736 58.691 207.773 58.3974C207.859 57.6846 208.091 56.9829 208.465 56.2952C208.84 55.6076 209.362 54.9926 210.038 54.453C210.711 53.9107 211.543 53.483 212.532 53.1643C213.521 52.8484 214.674 52.6891 215.996 52.6891C216.973 52.6891 217.794 52.8149 218.465 53.0665C219.132 53.3181 219.668 53.6284 220.073 53.9974C220.476 54.3692 220.749 54.7829 220.892 55.2469C221.034 55.711 221.079 56.1527 221.026 56.5748L221.023 56.572ZM174.945 76.4729C174.993 76.076 175.018 75.6678 175.015 75.2429C175.015 74.8208 174.968 74.4378 174.878 74.094C174.789 73.7502 174.633 73.465 174.409 73.2414C174.186 73.0177 173.876 72.9031 173.479 72.9031C173.214 72.9031 172.795 72.9814 172.222 73.1407L171.999 74.9634C171.811 76.4953 171.767 77.6778 171.862 78.5108C171.96 79.3439 172.39 79.7604 173.155 79.7604C173.761 79.7604 174.18 79.4753 174.406 78.9078C174.635 78.3403 174.814 77.5268 174.943 76.4701L174.945 76.4729ZM188.835 74.6112C188.989 73.342 188.978 72.1987 188.799 71.1811C188.62 70.1636 188.344 69.2327 187.972 68.3856L187.978 68.3465C187.634 68.7686 187.333 69.1852 187.073 69.5961C186.81 70.007 186.573 70.4487 186.355 70.9239C186.14 71.3992 185.956 71.9163 185.81 72.4698C185.665 73.0233 185.545 73.6579 185.459 74.3735C185.375 75.0612 185.324 75.7489 185.305 76.4366C185.285 77.1243 185.311 77.7449 185.375 78.2984C185.439 78.8547 185.567 79.3103 185.763 79.6654C185.959 80.0204 186.227 80.2021 186.57 80.2021C186.861 80.2021 187.123 80.0428 187.361 79.7269C187.598 79.411 187.813 78.9861 188.011 78.4577C188.207 77.9294 188.375 77.3284 188.509 76.6546C188.643 75.9809 188.754 75.3016 188.835 74.6139V74.6112ZM202.463 74.6112C202.617 73.342 202.611 72.2071 202.443 71.2007C202.276 70.1971 201.997 69.3361 201.608 68.6233L201.603 68.6624C201.379 68.9783 201.133 69.3641 200.868 69.8113C200.6 70.2614 200.343 70.7562 200.092 71.2985C199.84 71.8408 199.62 72.4083 199.427 73.0038C199.234 73.5992 199.103 74.2002 199.027 74.8068C198.944 75.4945 198.888 76.1626 198.863 76.8084C198.838 77.4569 198.863 78.0328 198.949 78.5332C199.033 79.0364 199.167 79.4389 199.357 79.7436C199.544 80.0483 199.81 80.1993 200.153 80.1993C200.416 80.1993 200.673 80.04 200.924 79.7241C201.173 79.4082 201.396 78.9833 201.594 78.4549C201.79 77.9266 201.963 77.3256 202.111 76.6518C202.259 75.9781 202.376 75.2988 202.46 74.6112H202.463ZM217.099 56.6111C217.18 55.9514 217.11 55.3895 216.889 54.9255C216.669 54.4642 216.213 54.2322 215.529 54.2322C215.132 54.2322 214.755 54.344 214.398 54.5704C214.04 54.7941 213.716 55.0652 213.429 55.3839C213.138 55.6998 212.892 56.0381 212.691 56.3959C212.49 56.7537 212.348 57.05 212.264 57.2876L212.144 58.28C212.638 58.5456 213.082 58.6966 213.473 58.7357C213.864 58.7748 214.283 58.7944 214.733 58.7944C215.077 58.7944 215.389 58.7161 215.674 58.5568C215.956 58.3974 216.205 58.2129 216.414 58.0005C216.624 57.788 216.786 57.5588 216.895 57.3072C217.004 57.0556 217.074 56.8264 217.099 56.6139V56.6111Z" fill="white"/>
<path d="M232.084 65.2547L230.042 81.9828H225.288L227.33 65.2547H223.448L221.406 81.9828H216.691L218.981 63.2308H235.578L235.332 65.2519H232.084V65.2547ZM230.746 56.0968C230.654 56.8627 230.235 57.5168 229.497 58.0592C228.757 58.6015 227.925 58.8727 227.003 58.8727C226.5 58.8727 226.042 58.8 225.623 58.6546C225.204 58.5092 224.847 58.3108 224.548 58.0592C224.249 57.8076 224.026 57.5168 223.883 57.187C223.738 56.8571 223.691 56.4937 223.738 56.0968C223.83 55.3308 224.26 54.6822 225.026 54.1539C225.791 53.6256 226.674 53.36 227.676 53.36C228.601 53.36 229.366 53.6256 229.975 54.1539C230.584 54.6822 230.841 55.3308 230.749 56.0968H230.746Z" fill="white"/>
<path d="M35.7345 118.511C35.3658 121.525 34.3184 123.823 32.595 125.41C30.8689 126.995 28.5422 127.789 25.6095 127.789H21.3724C20.6853 127.789 20.1713 127.901 19.825 128.128C19.4814 128.351 19.1686 128.636 18.8893 128.98L18.8697 129.14C18.772 129.299 18.6742 129.497 18.5793 129.735C18.4843 129.973 18.4117 130.302 18.3586 130.725L18.3139 131.082C18.3 131.189 18.2804 131.242 18.2553 131.242L18.2636 131.163C18.2441 131.11 18.2385 131.057 18.2441 131.004H13.4902L13.602 130.093C13.6439 129.749 13.7276 129.38 13.8561 128.983C13.9846 128.586 14.1494 128.203 14.3533 127.834C14.4874 127.596 14.6885 127.35 14.9594 127.102C15.2275 126.85 15.5571 126.626 15.9537 126.428C16.3476 126.229 16.814 126.07 17.3587 125.953C17.9005 125.832 18.5429 125.774 19.2803 125.774H25.6179C26.5955 125.774 27.411 125.57 28.0702 125.159C28.7266 124.748 29.2684 124.214 29.693 123.554C30.1175 122.894 30.4388 122.145 30.6594 121.315C30.8801 120.482 31.0421 119.643 31.1454 118.799C31.3074 117.477 31.3744 116.429 31.3521 115.649C31.3298 114.869 31.2488 114.282 31.1119 113.885C30.975 113.488 30.8019 113.231 30.5924 113.113C30.3829 112.993 30.1846 112.934 30.0002 112.934C29.869 112.934 29.6986 112.982 29.4891 113.074C29.2796 113.166 29.1037 113.253 28.964 113.331L28.9528 113.409L28.5422 113.846L27.5172 122.249H22.7633L24.8051 105.518H21.4785L19.4367 122.249H14.6829L16.9732 103.497H35.6283L35.3825 105.518H29.5589L28.8774 111.109C28.7294 111.24 28.6819 111.293 28.7378 111.268C28.7936 111.243 28.8495 111.215 28.9053 111.19L29.5729 110.913C29.7098 110.86 29.8885 110.812 30.1036 110.773C30.3187 110.734 30.679 110.715 31.1789 110.715C31.9442 110.715 32.6453 110.874 33.2793 111.19C33.9134 111.506 34.4357 111.989 34.8463 112.638C35.2541 113.286 35.5445 114.097 35.7177 115.076C35.8881 116.054 35.8937 117.203 35.7317 118.525L35.7345 118.511ZM28.95 113.398C29.0059 113.373 29.0646 113.331 29.1232 113.278L29.0338 113.356C29.0031 113.381 28.9724 113.423 28.9417 113.474L28.95 113.395V113.398Z" fill="white"/>
<path d="M58.596 112.604C58.3642 114.508 57.9815 116.074 57.448 117.301C56.9146 118.531 56.247 119.515 55.4426 120.256C54.6382 120.996 53.7109 121.511 52.6579 121.801C51.6049 122.092 50.4457 122.238 49.1777 122.238H36.3434L38.6337 103.486H43.4267L41.3877 120.175H44.5551L45.8874 109.272C46.0941 107.581 46.7868 106.175 47.9683 105.051C49.1497 103.927 50.834 103.365 53.0266 103.365C54.0293 103.365 54.9203 103.539 55.6968 103.88C56.4733 104.224 57.1129 104.766 57.6184 105.504C58.1212 106.245 58.4619 107.204 58.6351 108.378C58.8083 109.555 58.7943 110.961 58.596 112.599V112.604ZM51.5518 96.3515C51.4596 97.1175 51.0351 97.7716 50.2837 98.3139C49.5296 98.8563 48.6917 99.1274 47.7672 99.1274C46.7644 99.1274 45.9433 98.8563 45.312 98.3139C44.678 97.7716 44.4071 97.1175 44.502 96.3515C44.5942 95.5856 45.0243 94.937 45.7896 94.4087C46.5522 93.8803 47.4376 93.6147 48.4403 93.6147C49.3648 93.6147 50.1357 93.8803 50.7586 94.4087C51.3814 94.937 51.644 95.5856 51.5518 96.3515ZM53.6355 112.051C53.7332 111.257 53.8142 110.471 53.884 109.691C53.9539 108.912 53.9706 108.218 53.9399 107.612C53.9092 107.005 53.803 106.516 53.6243 106.144C53.4455 105.775 53.1578 105.588 52.7612 105.588C52.3115 105.588 51.9512 105.747 51.6747 106.063C51.3982 106.379 51.1859 106.765 51.0407 107.212C50.8926 107.662 50.7837 108.118 50.7139 108.579C50.644 109.04 50.5938 109.406 50.5603 109.669L49.2782 120.175C50.1022 120.121 50.7697 119.912 51.2781 119.54C51.7864 119.171 52.1803 118.687 52.4652 118.092C52.75 117.496 52.9567 116.823 53.088 116.071C53.2193 115.316 53.3366 114.519 53.4399 113.672L53.6383 112.048L53.6355 112.051Z" fill="white"/>
<path d="M80.7398 112.604C80.508 114.508 80.1253 116.073 79.5918 117.301C79.0584 118.531 78.3908 119.515 77.5864 120.256C76.782 120.996 75.8547 121.511 74.8017 121.801C73.7487 122.092 72.5895 122.238 71.3215 122.238H58.4872L60.7775 103.485H65.5705L63.5315 120.174H66.6989L68.0312 109.272C68.2379 107.581 68.9306 106.175 70.1121 105.051C71.2935 103.927 72.9778 103.365 75.1704 103.365C76.1731 103.365 77.0641 103.539 77.8406 103.88C78.6171 104.224 79.2567 104.766 79.7622 105.504C80.265 106.245 80.6057 107.203 80.7789 108.378C80.9521 109.554 80.9381 110.961 80.7398 112.599V112.604ZM75.7765 112.051C75.8742 111.257 75.9552 110.471 76.0251 109.691C76.0949 108.912 76.1116 108.218 76.0809 107.612C76.0502 107.005 75.9441 106.516 75.7653 106.144C75.5865 105.775 75.2989 105.588 74.9022 105.588C74.4525 105.588 74.0922 105.747 73.8157 106.063C73.5392 106.379 73.3269 106.765 73.1817 107.212C73.0336 107.662 72.9247 108.118 72.8549 108.579C72.7851 109.04 72.7348 109.406 72.7013 109.669L71.4192 120.174C72.2432 120.121 72.9107 119.912 73.4191 119.54C73.9274 119.171 74.3213 118.687 74.6062 118.092C74.8911 117.496 75.0977 116.823 75.229 116.071C75.3603 115.316 75.4776 114.519 75.581 113.672L75.7793 112.048L75.7765 112.051Z" fill="white"/>
<path d="M94.8199 102.107H98.1856L97.8252 105.051H97.9034C98.476 104.059 99.2832 103.254 100.325 102.641C101.367 102.029 102.532 101.722 103.822 101.722C104.738 101.722 105.548 101.873 106.252 102.177C106.956 102.479 107.545 102.921 108.014 103.494C108.487 104.07 108.813 104.769 108.995 105.593H109.073C109.545 104.78 110.132 104.087 110.827 103.514C111.523 102.94 112.299 102.496 113.154 102.188C114.011 101.878 114.911 101.724 115.852 101.724C117.179 101.724 118.301 101.998 119.215 102.546C120.128 103.094 120.796 103.863 121.215 104.85C121.636 105.837 121.765 107.002 121.6 108.344L119.902 122.243H116.536L118.139 109.118C118.254 108.19 118.184 107.396 117.938 106.737C117.69 106.08 117.276 105.577 116.701 105.227C116.126 104.878 115.391 104.704 114.503 104.704C113.615 104.704 112.802 104.908 112.07 105.314C111.338 105.719 110.732 106.281 110.26 106.997C109.785 107.712 109.492 108.529 109.38 109.446L107.819 122.24H104.453L106.101 108.749C106.202 107.936 106.115 107.226 105.85 106.619C105.582 106.013 105.163 105.543 104.59 105.208C104.018 104.872 103.314 104.704 102.476 104.704C101.585 104.704 100.769 104.92 100.026 105.353C99.2832 105.786 98.6688 106.368 98.1772 107.106C97.6884 107.841 97.3867 108.68 97.2694 109.622L95.7276 122.243H92.3619L94.8199 102.113V102.107Z" fill="white"/>
<path d="M126.834 102.107H130.2L129.784 105.515H129.862C130.339 104.355 131.032 103.432 131.94 102.748C132.848 102.063 133.87 101.722 135.004 101.722C135.3 101.722 135.565 101.738 135.8 101.769C136.035 101.8 136.216 101.831 136.342 101.856L135.942 105.126C135.82 105.076 135.596 105.029 135.272 104.99C134.948 104.95 134.579 104.931 134.166 104.931C133.303 104.931 132.521 105.124 131.823 105.512C131.124 105.901 130.555 106.457 130.11 107.187C129.666 107.916 129.381 108.791 129.259 109.809L127.742 122.238H124.376L126.834 102.107Z" fill="white"/>
<path d="M135.392 121.871C135.018 121.446 134.87 120.924 134.945 120.303C135.021 119.682 135.297 119.162 135.775 118.735C136.253 118.31 136.8 118.097 137.42 118.097C138.04 118.097 138.534 118.31 138.909 118.735C139.283 119.16 139.431 119.682 139.356 120.303C139.28 120.924 139.004 121.444 138.526 121.871C138.048 122.296 137.501 122.509 136.881 122.509C136.261 122.509 135.767 122.296 135.392 121.871Z" fill="white"/>
<path d="M154.357 122.238L154.508 121.008C154.882 120.745 155.22 120.309 155.519 119.699C155.818 119.093 156.056 118.075 156.229 116.647L156.743 112.445C156.84 111.651 156.852 110.846 156.779 110.027C156.706 109.208 156.533 108.475 156.254 107.827C155.977 107.181 155.578 106.644 155.064 106.222C154.547 105.8 153.88 105.588 153.061 105.588C152.321 105.588 151.668 105.753 151.101 106.083C150.531 106.412 150.025 106.829 149.581 107.332C149.137 107.835 148.757 108.403 148.442 109.037C148.126 109.672 147.866 110.281 147.665 110.86L147.548 111.81C147.97 111.598 148.422 111.413 148.902 111.254C149.383 111.095 149.874 111.017 150.377 111.017C150.508 111.017 150.704 111.03 150.967 111.056C151.226 111.084 151.394 111.123 151.467 111.176L151.461 111.215C152.528 111.559 153.332 112.219 153.871 113.197C154.413 114.175 154.603 115.324 154.441 116.647C154.304 117.756 154.014 118.682 153.567 119.422C153.12 120.163 152.595 120.745 151.986 121.167C151.38 121.589 150.743 121.888 150.076 122.059C149.408 122.232 148.796 122.316 148.243 122.316C147.531 122.316 146.802 122.224 146.059 122.039C145.316 121.855 144.665 121.452 144.107 120.829C143.548 120.208 143.132 119.288 142.858 118.072C142.584 116.856 142.573 115.218 142.825 113.158C142.998 111.729 143.389 110.421 143.998 109.233C144.604 108.045 145.372 107.013 146.296 106.141C147.221 105.269 148.282 104.59 149.478 104.101C150.673 103.611 151.93 103.368 153.251 103.368C155.179 103.368 156.712 103.684 157.849 104.319C158.986 104.953 159.843 105.719 160.421 106.616C160.997 107.517 161.351 108.453 161.483 109.431C161.614 110.41 161.639 111.243 161.555 111.928L161.178 115.02C161.089 115.76 161.002 116.347 160.924 116.784C160.843 117.22 160.742 117.505 160.622 117.636L159.907 118.31L159.835 118.905C159.79 119.277 159.776 119.501 159.793 119.579L159.72 120.174H162.888L164.926 103.486H169.719L167.429 122.238H154.357ZM150.078 116.728C150.129 116.306 150.154 115.883 150.154 115.459C150.154 115.036 150.101 114.653 149.997 114.31C149.894 113.966 149.729 113.689 149.506 113.477C149.28 113.267 148.969 113.161 148.573 113.161C148.335 113.161 147.93 113.239 147.355 113.398L147.274 114.072C147.232 114.203 147.199 114.363 147.176 114.547C147.154 114.732 147.134 114.891 147.118 115.022L147.037 115.696C146.872 117.044 146.855 118.1 146.986 118.869C147.118 119.635 147.525 120.018 148.213 120.018C148.794 120.018 149.218 119.736 149.486 119.165C149.754 118.598 149.953 117.784 150.081 116.728H150.078Z" fill="white"/>
<path d="M184.285 105.509L182.244 122.24H177.49L179.532 105.509H175.649L173.607 122.24H168.893L171.183 103.488H187.78L187.534 105.509H184.285Z" fill="white"/>
<path d="M187.313 122.238L189.604 103.486H194.357L192.318 120.175H202.578L202.326 122.235H187.313V122.238ZM202.396 96.3515C202.304 97.1175 201.885 97.7716 201.147 98.3139C200.407 98.8563 199.536 99.1274 198.533 99.1274C197.53 99.1274 196.771 98.8563 196.176 98.3139C195.581 97.7716 195.332 97.1175 195.424 96.3515C195.517 95.5856 195.927 94.937 196.651 94.4087C197.374 93.8803 198.226 93.6147 199.203 93.6147C200.181 93.6147 201.013 93.8803 201.622 94.4087C202.231 94.937 202.488 95.5856 202.396 96.3515Z" fill="white"/>
<path d="M203.91 122.237L206.2 103.485H210.954L208.915 120.174H219.174L218.923 122.235H203.91V122.237Z" fill="white"/>
<path d="M235.818 105.509L233.776 122.24H229.023L231.064 105.509H227.182L225.14 122.24H220.425L222.716 103.488H239.312L239.067 105.509H235.818ZM234.48 96.3515C234.388 97.1175 233.969 97.7716 233.232 98.3139C232.492 98.8563 231.659 99.1274 230.735 99.1274C230.232 99.1274 229.774 99.0547 229.355 98.9094C228.936 98.764 228.578 98.5655 228.28 98.3139C227.981 98.0623 227.757 97.7716 227.615 97.4417C227.47 97.1119 227.422 96.7485 227.47 96.3515C227.562 95.5856 227.992 94.937 228.757 94.4087C229.52 93.8803 230.405 93.6147 231.408 93.6147C232.332 93.6147 233.098 93.8803 233.707 94.4087C234.315 94.937 234.572 95.5856 234.48 96.3515Z" fill="white"/>
<defs>
<filter id="filter0_d_744_176" x="0" y="0" width="262.227" height="155.076" filterUnits="userSpaceOnUse" color-interpolation-filters="sRGB">
<feFlood flood-opacity="0" result="BackgroundImageFix"/>
<feColorMatrix in="SourceAlpha" type="matrix" values="0 0 0 0 0 0 0 0 0 0 0 0 0 0 0 0 0 0 127 0" result="hardAlpha"/>
<feOffset dx="7" dy="10"/>
<feComposite in2="hardAlpha" operator="out"/>
<feColorMatrix type="matrix" values="0 0 0 0 0.415686 0 0 0 0 0.278431 0 0 0 0 0.439216 0 0 0 1 0"/>
<feBlend mode="normal" in2="BackgroundImageFix" result="effect1_dropShadow_744_176"/>
<feBlend mode="normal" in="SourceGraphic" in2="effect1_dropShadow_744_176" result="shape"/>
</filter>
</defs>
</svg>
