<svg width="273" height="159" viewBox="0 0 273 159" fill="none" xmlns="http://www.w3.org/2000/svg">
<mask id="mask0_313_37" style="mask-type:luminance" maskUnits="userSpaceOnUse" x="7" y="7" width="267" height="153">
<path d="M273 7.93134H7.94153V159.003H273V7.93134Z" fill="white"/>
</mask>
<g mask="url(#mask0_313_37)">
<path d="M272.91 118.598L272.645 120.771C272.246 124.017 270.578 126.83 268.169 128.736L266.941 138.759C266.202 144.792 261.075 149.324 254.992 149.324H249.869C249.165 149.324 248.466 149.263 247.781 149.144C247.101 149.26 246.399 149.324 245.687 149.324H240.61C240.372 149.324 240.133 149.313 239.9 149.303C239.667 149.313 239.437 149.324 239.201 149.324H223.025C222.776 149.324 222.524 149.313 222.278 149.3C222.032 149.316 221.781 149.324 221.532 149.324H205.355C204.468 149.324 203.589 149.223 202.734 149.033C201.887 149.223 201.008 149.324 200.108 149.324H194.986C194.282 149.324 193.583 149.263 192.9 149.144C192.217 149.26 191.518 149.324 190.806 149.324H185.727C185.499 149.324 185.266 149.318 185.038 149.303C184.816 149.313 184.591 149.324 184.361 149.324H170.278C169.351 149.324 168.433 149.218 167.549 149.012C166.238 149.276 164.946 149.411 163.694 149.411C161.953 149.411 160.182 149.189 158.434 148.755C158.08 148.668 157.725 148.562 157.378 148.451C155.581 149.213 153.64 149.614 151.66 149.614C149.68 149.614 147.917 149.25 146.231 148.565C144.918 149.054 143.502 149.324 142.027 149.324H138.401C137.625 149.324 136.858 149.244 136.108 149.102C135.359 149.247 134.586 149.324 133.797 149.324H130.171C128.54 149.324 126.941 148.993 125.472 148.372C124.024 148.988 122.433 149.324 120.771 149.324H117.144C115.514 149.324 113.917 148.993 112.446 148.372C110.998 148.988 109.407 149.324 107.744 149.324H104.118C100.703 149.324 97.4522 147.872 95.1677 145.337C93.2697 146.743 91.144 147.785 88.8251 148.422C86.6571 149.02 84.3197 149.324 81.8764 149.324H68.0477C66.7109 149.324 65.3979 149.099 64.1591 148.676C62.2849 149.104 60.2942 149.324 58.2295 149.324H48.975C48.8877 149.408 48.8003 149.485 48.7156 149.564C45.9599 152.092 41.1633 155.087 33.8069 155.28C31.5939 157.583 28.502 158.997 25.1216 158.997C24.2878 158.997 23.4592 158.91 22.6545 158.741H19.9915C16.5449 158.741 13.2624 157.266 10.9779 154.688C8.69345 152.108 7.624 148.676 8.0449 145.258L8.16137 144.277C8.29902 143.15 8.55844 141.995 8.93169 140.845C9.07993 140.385 9.2467 139.925 9.43465 139.476C9.21494 138.288 9.17258 137.062 9.32347 135.838L11.7906 115.674C12.095 113.178 13.1539 110.941 14.7157 109.178C13.5271 106.994 13.0295 104.482 13.3365 101.973L13.4583 100.993C13.596 99.8663 13.8554 98.711 14.226 97.5609C14.3769 97.1009 14.5463 96.6409 14.7289 96.1915C14.5119 95.0044 14.4695 93.7777 14.6204 92.5536L17.0875 72.3895C17.392 69.8937 18.4482 67.6571 20.0126 65.8937C18.8241 63.7125 18.3264 61.1983 18.6335 58.6893L18.7552 57.7085C18.8929 56.5849 19.1497 55.4322 19.5203 54.2848C19.6712 53.8195 19.8406 53.3595 20.0259 52.9047C19.8062 51.7177 19.7665 50.491 19.9173 49.2669L22.3818 29.1027C23.123 23.0722 28.2479 18.5381 34.3337 18.5381H52.4878C53.507 15.4925 55.5161 12.8487 58.3248 10.9082C61.1546 8.95706 64.5085 7.92334 68.0265 7.92334C71.8914 7.92334 75.4491 9.20558 78.3107 11.6299C80.5396 13.5229 82.0882 15.9076 82.8638 18.5381H86.2733C87.6895 18.5381 89.0819 18.7919 90.3843 19.2625C92.1844 18.7391 94.2518 18.4112 96.6183 18.4112C99.3793 18.4112 101.984 18.9426 104.359 19.9896C105.992 20.7113 107.495 21.6869 108.816 22.8792C109.843 22.1178 110.942 21.4437 112.109 20.862C114.108 19.8706 116.26 19.1489 118.505 18.7153C120.429 18.3425 122.325 18.1574 124.135 18.1574C126.61 18.1574 129.035 18.4562 131.338 19.0405C133.035 19.474 134.639 20.0689 136.132 20.8144C136.995 20.3835 137.893 20.0054 138.819 19.6882C141.196 18.8713 143.666 18.4562 146.165 18.4562C146.636 18.4562 147.163 18.4747 147.931 18.5196C148.674 18.5619 149.426 18.6518 150.189 18.7919C150.983 18.628 151.801 18.5381 152.643 18.5381H167.366C167.71 18.5381 168.052 18.5593 168.39 18.5857C169.179 18.131 170.021 17.7582 170.916 17.4859C172.075 17.1343 173.258 16.9624 174.431 16.9624C176.522 16.9624 178.579 17.5071 180.393 18.5381H194.896C198.343 18.5381 201.625 20.0134 203.91 22.5937C206.194 25.1741 207.264 28.6057 206.845 32.0241L206.581 34.1973C206.573 34.2713 206.562 34.348 206.552 34.422C208.344 37.235 209.98 41.6501 209.209 47.9635C208.836 51.0012 207.994 53.8063 206.702 56.2967C205.63 58.3615 204.304 60.2386 202.745 61.8804C202.928 61.9042 203.11 61.9306 203.29 61.9544C204.595 62.1527 205.773 62.4039 206.864 62.7264C207.213 62.6312 207.56 62.544 207.899 62.4673C209.85 62.0364 211.732 61.8222 213.506 61.8222C215.401 61.8222 217.093 61.965 218.676 62.2637C219.274 62.3748 219.843 62.499 220.388 62.6339C220.497 62.4303 220.608 62.2294 220.722 62.0258C222.188 59.4428 223.98 57.2723 226.048 55.5723C228.176 53.8221 230.5 52.5452 232.962 51.7679C235.13 51.0858 237.251 50.7395 239.273 50.7395C244.075 50.7395 248.122 51.99 251.307 54.454C254.182 56.6854 256.302 59.6305 257.443 62.9749C258.311 65.5209 258.695 68.1779 258.584 70.8772C258.52 72.445 258.42 73.7959 258.269 75.0068L255.844 94.8378C258.436 95.3745 260.807 96.5378 262.825 98.2853C265.548 100.646 267.232 103.755 267.698 107.155C268.537 107.718 269.31 108.39 269.99 109.159C272.278 111.74 273.347 115.171 272.929 118.59" fill="#6A4770"/>
</g>
<path d="M264.969 110.666L264.704 112.839C264.304 116.086 262.637 118.899 260.228 120.805L258.999 130.828C258.261 136.861 253.133 141.392 247.05 141.392H241.928C241.224 141.392 240.525 141.332 239.839 141.213C239.159 141.329 238.458 141.392 237.745 141.392H232.668C232.43 141.392 232.192 141.382 231.959 141.371C231.726 141.382 231.496 141.392 231.26 141.392H215.083C214.834 141.392 214.583 141.382 214.337 141.369C214.091 141.384 213.839 141.392 213.59 141.392H197.414C196.527 141.392 195.648 141.292 194.793 141.102C193.946 141.292 193.067 141.392 192.167 141.392H187.045C186.341 141.392 185.642 141.332 184.959 141.213C184.276 141.329 183.577 141.392 182.865 141.392H177.785C177.557 141.392 177.324 141.387 177.097 141.371C176.874 141.382 176.649 141.392 176.419 141.392H162.336C161.41 141.392 160.491 141.287 159.607 141.08C158.297 141.345 157.005 141.48 155.753 141.48C154.011 141.48 152.24 141.257 150.493 140.824C150.138 140.737 149.783 140.631 149.437 140.52C147.639 141.281 145.699 141.683 143.719 141.683C141.739 141.683 139.976 141.318 138.29 140.634C136.977 141.123 135.56 141.392 134.086 141.392H130.459C129.684 141.392 128.916 141.313 128.167 141.17C127.418 141.316 126.645 141.392 125.856 141.392H122.229C120.599 141.392 119 141.062 117.531 140.441C116.083 141.057 114.492 141.392 112.829 141.392H109.203C107.572 141.392 105.976 141.062 104.504 140.441C103.056 141.057 101.465 141.392 99.8028 141.392H96.1762C92.7614 141.392 89.5107 139.941 87.2262 137.405C85.3282 138.812 83.2025 139.854 80.8836 140.491C78.7156 141.088 76.3782 141.392 73.9349 141.392H60.1062C58.7694 141.392 57.4564 141.168 56.2175 140.745C54.3434 141.173 52.3527 141.392 50.2879 141.392H41.0335C40.9462 141.477 40.8588 141.554 40.7741 141.633C38.0184 144.16 33.2218 147.156 25.8654 147.349C23.6524 149.652 20.5605 151.066 17.1801 151.066C16.3462 151.066 15.5177 150.979 14.713 150.809H12.0499C8.60335 150.809 5.32089 149.334 3.03641 146.757C0.75192 144.176 -0.317527 140.745 0.103369 137.326L0.219844 136.345C0.357495 135.219 0.616915 134.064 0.990162 132.914C1.1384 132.454 1.30517 131.994 1.49312 131.544C1.27341 130.357 1.23105 129.13 1.38194 127.906L3.84908 107.742C4.1535 105.246 5.21236 103.01 6.77417 101.246C5.58561 99.0626 5.08794 96.551 5.39501 94.0421L5.51678 93.0612C5.65443 91.935 5.91385 90.7797 6.28445 89.6296C6.43534 89.1696 6.60476 88.7096 6.78741 88.2601C6.57034 87.0731 6.52799 85.8464 6.67888 84.6223L9.14601 64.4581C9.45044 61.9624 10.5066 59.7257 12.0711 57.9623C10.8825 55.7812 10.3849 53.267 10.6919 50.758L10.8137 49.7772C10.9514 48.6536 11.2081 47.5009 11.5787 46.3535C11.7296 45.8882 11.899 45.4281 12.0843 44.9734C11.8646 43.7863 11.8249 42.5596 11.9758 41.3356L14.4403 21.1714C15.1815 15.1409 20.3064 10.6068 26.3922 10.6068H44.5463C45.5654 7.56117 47.5746 4.91738 50.3832 2.97684C53.213 1.02573 56.567 -0.00799561 60.085 -0.00799561C63.9498 -0.00799561 67.5076 1.27424 70.3692 3.69859C72.5981 5.59155 74.1466 7.97624 74.9222 10.6068H78.3318C79.748 10.6068 81.1404 10.8606 82.4428 11.3312C84.2429 10.8077 86.3103 10.4799 88.6768 10.4799C91.4378 10.4799 94.0426 11.0113 96.4171 12.0582C98.0504 12.78 99.5539 13.7556 100.875 14.9479C101.902 14.1865 103.001 13.5123 104.168 12.9307C106.166 11.9393 108.319 11.2175 110.563 10.7839C112.488 10.4112 114.383 10.2261 116.194 10.2261C118.669 10.2261 121.094 10.5249 123.397 11.1091C125.094 11.5427 126.698 12.1376 128.191 12.8831C129.054 12.4522 129.951 12.0741 130.878 11.7569C133.255 10.9399 135.725 10.5249 138.223 10.5249C138.695 10.5249 139.221 10.5434 139.989 10.5883C140.733 10.6306 141.485 10.7205 142.247 10.8606C143.041 10.6967 143.859 10.6068 144.701 10.6068H159.424C159.769 10.6068 160.11 10.628 160.449 10.6544C161.238 10.1997 162.079 9.82689 162.974 9.55458C164.134 9.20296 165.317 9.03111 166.49 9.03111C168.581 9.03111 170.638 9.57573 172.451 10.6068H186.955C190.401 10.6068 193.684 12.082 195.968 14.6624C198.253 17.2427 199.322 20.6744 198.904 24.0928L198.639 26.266C198.631 26.34 198.621 26.4167 198.61 26.4907C200.402 29.3037 202.038 33.7188 201.268 40.0322C200.895 43.0699 200.053 45.8749 198.761 48.3654C197.689 50.4302 196.363 52.3073 194.803 53.9491C194.986 53.9729 195.169 53.9993 195.349 54.0231C196.654 54.2214 197.832 54.4725 198.922 54.7951C199.272 54.6999 199.619 54.6126 199.957 54.536C201.908 54.105 203.791 53.8909 205.564 53.8909C207.459 53.8909 209.151 54.0337 210.734 54.3324C211.332 54.4434 211.901 54.5677 212.447 54.7025C212.555 54.499 212.666 54.298 212.78 54.0945C214.247 51.5115 216.039 49.3409 218.106 47.641C220.235 45.8908 222.559 44.6138 225.021 43.8366C227.189 43.1545 229.309 42.8081 231.331 42.8081C236.133 42.8081 240.181 44.0587 243.365 46.5227C246.24 48.754 248.361 51.6992 249.501 55.0436C250.37 57.5896 250.754 60.2466 250.642 62.9459C250.579 64.5136 250.478 65.8646 250.327 67.0755L247.903 86.9065C250.494 87.4432 252.866 88.6065 254.883 90.354C257.607 92.7149 259.291 95.824 259.756 99.2239C260.596 99.787 261.369 100.459 262.049 101.228C264.336 103.808 265.405 107.24 264.987 110.658" fill="#A770AF"/>
<path d="M45.5203 38.5411C45.1233 41.7824 43.9956 44.2543 42.1373 45.9596C40.279 47.6648 37.7695 48.5161 34.6115 48.5161H30.0451C29.3039 48.5161 28.7507 48.6377 28.3774 48.8783C28.0068 49.1189 27.6707 49.4256 27.3689 49.7957L27.3477 49.9676C27.2418 50.1368 27.1359 50.3509 27.0353 50.6074C26.9321 50.8638 26.8527 51.2181 26.7971 51.6728L26.7494 52.0562C26.7362 52.1698 26.715 52.2254 26.6859 52.2254L26.6965 52.1408C26.6753 52.0826 26.6674 52.0271 26.6753 51.9716H21.5531L21.6722 50.9907C21.7172 50.6206 21.8099 50.224 21.9475 49.7957C22.0852 49.3701 22.2625 48.9576 22.4822 48.5611C22.6278 48.3046 22.8449 48.0429 23.1334 47.7732C23.422 47.5036 23.7793 47.263 24.2029 47.0488C24.6264 46.8347 25.132 46.6655 25.7171 46.5386C26.3021 46.4117 26.993 46.3456 27.7898 46.3456H34.6194C35.673 46.3456 36.5518 46.1261 37.2613 45.6846C37.9707 45.2431 38.5531 44.6694 39.0084 43.9582C39.4637 43.2471 39.8131 42.446 40.0487 41.5497C40.2869 40.6535 40.459 39.752 40.5728 38.8425C40.7475 37.4228 40.8217 36.2913 40.7952 35.4532C40.7687 34.6151 40.684 33.9832 40.5358 33.5549C40.3875 33.1293 40.2022 32.8517 39.9746 32.7248C39.7469 32.5979 39.5352 32.5318 39.3366 32.5318C39.1937 32.5318 39.011 32.582 38.786 32.6825C38.561 32.7829 38.3704 32.8755 38.2195 32.9601L38.2089 33.0447L37.7669 33.5126L36.6604 42.5491H31.5381L33.7406 24.5608H30.1563L27.9539 42.5491H22.8317L25.2988 22.3876H45.4012L45.1339 24.5608H38.8601L38.1242 30.5701C37.9627 30.7129 37.9151 30.7684 37.976 30.7419C38.0369 30.7129 38.0951 30.6864 38.156 30.6573L38.876 30.3586C39.0243 30.3031 39.2175 30.2528 39.4504 30.2105C39.6834 30.1682 40.0699 30.1471 40.6099 30.1471C41.4358 30.1471 42.1902 30.3189 42.8732 30.6573C43.5562 30.9984 44.12 31.5166 44.5621 32.2145C45.0042 32.9125 45.3165 33.7849 45.4992 34.8372C45.6845 35.8894 45.6898 37.124 45.5151 38.5464M38.2116 33.042C38.2725 33.0156 38.3333 32.9707 38.3969 32.9151L38.3016 32.9997C38.2698 33.0288 38.2354 33.0711 38.201 33.1266L38.2116 33.042Z" fill="white"/>
<path d="M69.9429 32.1908C69.6914 34.237 69.2784 35.9211 68.7067 37.243C68.1322 38.5649 67.4122 39.6251 66.5466 40.4182C65.681 41.214 64.6804 41.7692 63.5474 42.0812C62.4144 42.3931 61.1649 42.5491 59.799 42.5491H45.9703L48.4375 22.3876H53.6021L51.4049 40.3336H54.8197L56.2545 28.6111C56.4768 26.7921 57.2233 25.2799 58.4966 24.0717C59.7673 22.8635 61.5832 22.2607 63.9471 22.2607C65.0271 22.2607 65.988 22.4458 66.8245 22.8159C67.661 23.186 68.3519 23.7676 68.8946 24.5634C69.4373 25.3592 69.8026 26.3903 69.9879 27.654C70.1758 28.9177 70.1599 30.4326 69.9455 32.1934M62.3482 14.7127C62.2476 15.5375 61.7923 16.2408 60.9796 16.8224C60.167 17.4041 59.2643 17.6949 58.269 17.6949C57.1863 17.6949 56.3048 17.4041 55.6218 16.8224C54.9389 16.2408 54.6477 15.5375 54.7483 14.7127C54.8489 13.8878 55.3121 13.1925 56.1354 12.6241C56.9586 12.0557 57.9116 11.7701 58.9943 11.7701C59.9896 11.7701 60.8235 12.0557 61.4932 12.6241C62.1629 13.1925 62.4488 13.8878 62.3482 14.7127ZM64.5956 31.5933C64.6989 30.742 64.7889 29.8959 64.863 29.0579C64.9371 28.2198 64.9583 27.4742 64.9239 26.8212C64.8895 26.1682 64.7756 25.6421 64.5824 25.2429C64.3892 24.8463 64.0795 24.6454 63.6533 24.6454C63.1688 24.6454 62.7797 24.8172 62.4806 25.1556C62.1814 25.4967 61.9538 25.9091 61.795 26.3929C61.6361 26.8767 61.5197 27.3658 61.4455 27.8629C61.3688 28.3599 61.3158 28.7512 61.2814 29.0341L59.8996 40.331C60.789 40.2728 61.5064 40.0481 62.0517 39.6489C62.597 39.2497 63.0232 38.7315 63.3303 38.0917C63.6374 37.4519 63.8597 36.7275 64.0027 35.9185C64.1456 35.1095 64.27 34.2503 64.3812 33.3408L64.5956 31.5933Z" fill="white"/>
<path d="M93.5872 32.1907C93.3357 34.237 92.9227 35.9211 92.3509 37.243C91.7765 38.5649 91.0565 39.6251 90.1909 40.4182C89.3253 41.214 88.3246 41.7692 87.1917 42.0812C86.0587 42.3931 84.8092 42.5491 83.4433 42.5491H69.6146L72.0818 22.3876H77.2463L75.0492 40.3336H78.464L79.8988 28.6111C80.1211 26.7921 80.8676 25.2799 82.1409 24.0717C83.4115 22.8635 85.2301 22.2607 87.5914 22.2607C88.6714 22.2607 89.6323 22.4457 90.4688 22.8159C91.3053 23.186 91.9962 23.7676 92.5389 24.5634C93.0816 25.3592 93.4469 26.3903 93.6322 27.654C93.8201 28.9177 93.8042 30.4326 93.5898 32.1934M88.2399 31.5933C88.3432 30.742 88.4332 29.8959 88.5073 29.0579C88.5814 28.2198 88.6026 27.4742 88.5682 26.8212C88.5338 26.1682 88.4199 25.6421 88.2267 25.2429C88.0335 24.8463 87.7237 24.6454 87.2975 24.6454C86.8131 24.6454 86.424 24.8172 86.1249 25.1556C85.8257 25.4967 85.5981 25.9091 85.4393 26.3929C85.2804 26.8767 85.1639 27.3658 85.0898 27.8629C85.0131 28.3599 84.9601 28.7512 84.9257 29.0341L83.5439 40.331C84.4333 40.2728 85.1507 40.0481 85.6987 39.6489C86.244 39.2497 86.6702 38.7315 86.9772 38.0917C87.2843 37.4519 87.5067 36.7275 87.6496 35.9185C87.7926 35.1095 87.917 34.2503 88.0282 33.3408L88.2426 31.5933H88.2399Z" fill="white"/>
<path d="M108.152 42.5491C107.726 42.5491 107.209 42.528 106.601 42.4856C105.994 42.4433 105.412 42.3217 104.853 42.1235C104.295 41.9252 103.832 41.6264 103.469 41.2272C103.106 40.8306 102.969 40.2622 103.059 39.522C103.125 38.9826 103.315 38.5279 103.63 38.1578C103.945 37.7876 104.337 37.4968 104.806 37.2853C105.272 37.0712 105.804 36.9231 106.397 36.8385C106.99 36.7539 107.585 36.7116 108.184 36.7116H112.922C115.056 36.7116 116.694 36.1723 117.838 35.0936C118.979 34.015 119.683 32.4075 119.942 30.2766C120.061 29.3117 120.024 28.4366 119.836 27.654C119.648 26.8741 119.336 26.2131 118.904 25.6712C118.473 25.1318 117.941 24.7115 117.308 24.4127C116.676 24.114 115.977 23.9659 115.209 23.9659C114.611 23.9659 113.968 24.1008 113.282 24.3704C112.594 24.6401 111.853 25.116 111.058 25.7981L110.865 27.3738H114.195C115.503 27.3738 116.517 27.6434 117.234 28.1854C117.952 28.7247 118.253 29.4491 118.142 30.3586C118.063 31.0116 117.777 31.5298 117.29 31.9131C116.8 32.2965 116.226 32.5952 115.559 32.8094C114.891 33.0235 114.185 33.1637 113.435 33.235C112.686 33.3064 112.014 33.3408 111.416 33.3408C110.563 33.3408 109.703 33.2641 108.84 33.1055C107.977 32.9495 107.199 32.6719 106.508 32.2753C105.817 31.8761 105.274 31.358 104.883 30.7182C104.491 30.0784 104.356 29.2614 104.478 28.2674C104.613 27.1596 105.049 26.2079 105.788 25.4121C106.526 24.6163 107.408 23.9633 108.44 23.4504C109.47 22.9375 110.577 22.57 111.757 22.3426C112.938 22.1153 114.052 22.0016 115.106 22.0016C116.586 22.0016 117.994 22.1734 119.333 22.5145C120.67 22.8555 121.84 23.3684 122.838 24.0479C123.836 24.73 124.599 25.5892 125.125 26.6282C125.652 27.6672 125.832 28.8807 125.66 30.274C125.475 31.781 125.033 33.0235 124.328 34.0044C123.624 34.9852 122.748 35.7599 121.697 36.3283C120.646 36.8967 119.479 37.3012 118.198 37.5418C116.916 37.785 115.593 37.904 114.227 37.904H109.96C109.56 37.904 109.272 37.9965 109.094 38.1816C108.914 38.3666 108.779 38.8425 108.684 39.6092C108.626 40.093 108.636 40.4552 108.721 40.6958C108.806 40.9364 108.925 41.1215 109.081 41.251C109.237 41.3779 109.42 41.4493 109.632 41.4651C109.843 41.481 110.047 41.4863 110.248 41.4863H156.002L155.872 42.5517H108.154L108.152 42.5491ZM113.139 30.0598C113.261 29.0658 113.139 28.4181 112.779 28.1193C112.416 27.8206 111.937 27.6725 111.339 27.6725H109.973L109.859 28.6111C109.772 29.5496 109.782 30.2872 109.886 30.8265C109.992 31.3659 110.127 31.7651 110.293 32.0189C110.46 32.2753 110.635 32.4313 110.812 32.4868C110.99 32.545 111.135 32.5714 111.249 32.5714C111.649 32.5714 112.03 32.4155 112.395 32.1035C112.76 31.7915 113.007 31.1094 113.136 30.0572M155.766 24.5608L154.133 37.904H149.01L150.644 24.5608H147.954L146.321 37.904H141.199L141.855 32.5318C141.998 31.3659 142.022 30.3004 141.927 29.3355C141.831 28.3705 141.598 27.5456 141.225 26.8635C140.852 26.1814 140.357 25.6553 139.732 25.2852C139.107 24.915 138.327 24.73 137.39 24.73C137.048 24.73 136.672 24.7723 136.264 24.8569C135.854 24.9415 135.433 25.1265 135.002 25.4121C134.568 25.6976 134.136 26.0862 133.705 26.5833C133.273 27.0803 132.868 27.728 132.487 28.5238L132.336 29.7611H135.409C136.945 29.7611 138.091 30.118 138.843 30.8265C139.595 31.5377 139.904 32.4313 139.772 33.5126C139.674 34.3084 139.423 34.9826 139.012 35.5378C138.605 36.093 138.091 36.5477 137.479 36.902C136.865 37.2562 136.167 37.5127 135.38 37.6687C134.591 37.8247 133.771 37.904 132.918 37.904C132.349 37.904 131.706 37.8114 130.989 37.6264C130.271 37.4413 129.617 37.0923 129.025 36.5821C128.432 36.0718 127.96 35.3448 127.606 34.4089C127.251 33.4703 127.166 32.2489 127.349 30.7446C127.508 29.4386 127.889 28.2594 128.487 27.2072C129.085 26.155 129.827 25.2693 130.713 24.5423C131.598 23.8179 132.598 23.2627 133.713 22.8793C134.827 22.496 135.965 22.303 137.133 22.303C137.36 22.303 137.72 22.3188 138.215 22.3453C138.708 22.3744 139.253 22.4722 139.843 22.644C140.434 22.8159 141.032 23.0908 141.641 23.4742C142.247 23.8575 142.792 24.4048 143.274 25.116L143.608 22.3876H158.334L158.066 24.5608H155.761H155.766ZM134.978 33.2985C135.012 33.0156 135.044 32.6957 135.073 32.3388C135.102 31.9845 135.086 31.6435 135.028 31.3156C134.967 30.9905 134.854 30.7129 134.681 30.4855C134.509 30.2581 134.253 30.1445 133.911 30.1445H132.119L131.862 32.233C131.817 32.6032 131.78 33.0156 131.754 33.4703C131.727 33.9251 131.746 34.3428 131.812 34.7288C131.878 35.1121 132.018 35.432 132.228 35.6885C132.437 35.9449 132.757 36.0718 133.183 36.0718C133.525 36.0718 133.877 35.8656 134.239 35.4532C134.602 35.0407 134.846 34.3243 134.973 33.3011" fill="white"/>
<path d="M188.228 38.3296C188.029 39.9502 187.614 41.37 186.981 42.5914C186.348 43.8128 185.562 44.8783 184.628 45.7877C183.691 46.6972 182.648 47.4427 181.494 48.027C180.339 48.6086 179.159 49.0845 177.946 49.4547C176.734 49.8248 175.522 50.0786 174.309 50.2214C173.097 50.3641 171.964 50.4355 170.91 50.4355C168.208 50.4355 165.878 49.9887 163.925 49.0925C161.971 48.1962 160.38 47.0039 159.157 45.5128C157.931 44.0217 157.071 42.3164 156.581 40.397C156.092 38.4777 155.967 36.5107 156.216 34.4935C156.409 32.9019 156.812 31.4187 157.423 30.0387C158.032 28.6613 158.765 27.4372 159.62 26.3718C160.475 25.3063 161.386 24.4312 162.352 23.7491C163.318 23.067 164.269 22.6282 165.203 22.4272L165.402 20.8066C165.425 20.8357 165.502 20.9123 165.629 21.0419C165.756 21.1688 165.881 21.2983 166.008 21.4252C166.135 21.5521 166.249 21.6685 166.349 21.7663C166.45 21.8667 166.49 21.8879 166.468 21.8297L166.521 21.7451L166.479 22.0862L166.217 21.7874L165.873 24.6004C165.312 24.7723 164.774 25.1556 164.261 25.7505C163.747 26.348 163.271 27.0935 162.834 27.9898C162.397 28.886 162.026 29.8853 161.719 30.9957C161.412 32.1035 161.187 33.2535 161.042 34.4485C160.801 36.4102 160.856 38.2344 161.203 39.9264C161.553 41.6185 162.169 43.0805 163.056 44.3178C163.943 45.5551 165.084 46.5201 166.479 47.2154C167.874 47.9107 169.494 48.2597 171.344 48.2597C172.454 48.2597 173.671 48.1381 174.995 47.8975C176.318 47.6569 177.584 47.1519 178.786 46.3852C179.99 45.6185 181.041 44.5319 181.938 43.1254C182.836 41.7189 183.426 39.863 183.707 37.5629C183.892 36.0559 183.789 34.8636 183.397 33.9832C183.005 33.1028 182.568 32.6613 182.087 32.6613H181.66C181.517 32.6613 181.388 32.6772 181.271 32.7036L181.218 33.1293C181.128 33.1584 180.996 33.1927 180.821 33.2377C180.647 33.28 180.53 33.3011 180.472 33.3011L179.709 39.5246L179.564 40.7196L179.339 42.5517H174.259L176.461 24.5634H172.877L170.675 42.5517H165.51L167.977 22.3902H185.861L185.594 24.5634H181.539L180.882 29.9356H182.079L182.031 30.3189H181.007C180.975 30.348 181.057 30.3612 181.258 30.3612H182.624C184.615 30.3612 186.126 31.0433 187.153 32.4075C188.18 33.7717 188.538 35.7466 188.22 38.3322M166.484 22.0888H166.741L166.635 22.2607L166.484 22.0888ZM181.266 33.1293C181.263 33.1584 181.242 33.2562 181.208 33.428C181.173 33.5972 181.157 33.6554 181.165 33.5972L181.224 33.1266H181.266V33.1293ZM182.084 29.9303L182.153 29.3751L182.129 29.9303H182.087H182.084Z" fill="white"/>
<path d="M40.2234 81.8252C39.8263 85.0665 38.6986 87.5384 36.8403 89.2436C34.982 90.9489 32.4725 91.8002 29.3145 91.8002H24.7482C24.007 91.8002 23.4537 91.9218 23.0831 92.1624C22.7125 92.403 22.3763 92.7096 22.0746 93.0798L22.0534 93.2516C21.9475 93.4235 21.8416 93.635 21.741 93.8914C21.6378 94.1479 21.5584 94.5021 21.5028 94.9569L21.4551 95.3402C21.4419 95.4539 21.4207 95.5094 21.3916 95.5094L21.4022 95.4248C21.381 95.3666 21.3731 95.3111 21.381 95.2556H16.2588L16.3779 94.2748C16.4229 93.9046 16.5129 93.5081 16.6532 93.0798C16.7909 92.6541 16.9682 92.2417 17.1879 91.8451C17.3335 91.5887 17.5506 91.3269 17.8391 91.0573C18.1277 90.7876 18.485 90.547 18.9086 90.3329C19.3321 90.1187 19.8377 89.9495 20.4227 89.8226C21.0078 89.6957 21.6987 89.6296 22.4955 89.6296H29.3251C30.3787 89.6296 31.2575 89.4102 31.9669 88.9687C32.6764 88.5272 33.2587 87.9535 33.7141 87.2423C34.1694 86.5311 34.5188 85.73 34.7544 84.8338C34.9926 83.9376 35.1647 83.036 35.2785 82.1266C35.4532 80.7069 35.5274 79.5753 35.5009 78.7372C35.4744 77.8991 35.3897 77.2673 35.2415 76.839C35.0932 76.4133 34.9079 76.1357 34.6803 76.0088C34.4526 75.8819 34.2408 75.8158 34.0423 75.8158C33.8994 75.8158 33.7167 75.8661 33.4917 75.9665C33.2667 76.067 33.0761 76.1595 32.9252 76.2441L32.9146 76.3287L32.4725 76.7967L31.366 85.8332H26.2438L28.4462 67.8448H24.862L22.6596 85.8332H17.5374L20.0045 65.6716H40.1069L39.8396 67.8448H33.5658L32.8299 73.8542C32.6684 73.9969 32.6208 74.0524 32.6817 74.026C32.7426 73.9969 32.8008 73.9705 32.8617 73.9414L33.5817 73.6426C33.7299 73.5871 33.9232 73.5369 34.1561 73.4946C34.3891 73.4523 34.7756 73.4311 35.3156 73.4311C36.1415 73.4311 36.8959 73.603 37.5789 73.9414C38.2619 74.2824 38.8257 74.8006 39.2678 75.4986C39.7098 76.1966 40.0222 77.069 40.2049 78.1212C40.3902 79.1734 40.3955 80.4081 40.2207 81.8305M32.9146 76.3287C32.9755 76.3023 33.0364 76.2574 33.0999 76.2018L33.0046 76.2864C32.9729 76.3155 32.9384 76.3578 32.904 76.4133L32.9146 76.3287Z" fill="white"/>
<path d="M64.646 75.4748C64.3945 77.5211 63.9816 79.2052 63.4098 80.5271C62.8354 81.849 62.1153 82.9091 61.2497 83.7023C60.3841 84.498 59.3835 85.0532 58.2505 85.3652C57.1175 85.6772 55.8681 85.8331 54.5021 85.8331H40.6735L43.1406 65.6716H48.3052L46.108 83.6177H49.5229L50.9576 71.8951C51.18 70.0762 51.9265 68.5639 53.1997 67.3557C54.4704 66.1475 56.2863 65.5447 58.6502 65.5447C59.7303 65.5447 60.6912 65.7298 61.5277 66.0999C62.3642 66.4701 63.0551 67.0517 63.5977 67.8475C64.1404 68.6432 64.5057 69.6743 64.691 70.9381C64.879 72.2018 64.8631 73.7167 64.6486 75.4774M57.054 57.9994C56.9534 58.8242 56.4981 59.5275 55.6854 60.1091C54.8727 60.6907 53.9701 60.9816 52.9747 60.9816C51.8921 60.9816 51.0106 60.6907 50.3276 60.1091C49.6446 59.5275 49.3535 58.8242 49.454 57.9994C49.5546 57.1745 50.0179 56.4792 50.8411 55.9108C51.6644 55.3424 52.6174 55.0568 53.7001 55.0568C54.6954 55.0568 55.5292 55.3424 56.199 55.9108C56.8687 56.4792 57.1546 57.1745 57.054 57.9994ZM59.2988 74.8773C59.402 74.026 59.492 73.18 59.5661 72.3419C59.6403 71.5038 59.6614 70.7583 59.627 70.1053C59.5926 69.4522 59.4788 68.9261 59.2855 68.5269C59.0923 68.1304 58.7826 67.9294 58.3564 67.9294C57.872 67.9294 57.4828 68.1013 57.1837 68.4397C56.8846 68.7807 56.6569 69.1931 56.4981 69.677C56.3393 70.1608 56.2228 70.6499 56.1487 71.1469C56.0719 71.6439 56.019 72.0352 55.9845 72.3181L54.6027 83.615C55.4922 83.5568 56.2096 83.3321 56.7549 82.9329C57.3002 82.5337 57.7264 82.0155 58.0334 81.3757C58.3379 80.7359 58.5629 80.0115 58.7058 79.2025C58.8488 78.3935 58.9732 77.5343 59.0844 76.6248L59.2988 74.8773Z" fill="white"/>
<path d="M88.2903 75.4748C88.0388 77.5211 87.6258 79.2052 87.0541 80.5271C86.4796 81.849 85.7596 82.9091 84.894 83.7023C84.0284 84.4981 83.0278 85.0532 81.8948 85.3652C80.7618 85.6772 79.5124 85.8332 78.1464 85.8332H64.3177L66.7849 65.6716H71.9495L69.7523 83.6177H73.1672L74.6019 71.8951C74.8243 70.0762 75.5708 68.5639 76.844 67.3557C78.1147 66.1475 79.9333 65.5447 82.2945 65.5447C83.3745 65.5447 84.3355 65.7298 85.172 66.0999C86.0084 66.4701 86.6994 67.0517 87.242 67.8475C87.7847 68.6433 88.15 69.6743 88.3353 70.9381C88.5232 72.2018 88.5074 73.7167 88.2929 75.4774M82.9431 74.8773C83.0463 74.026 83.1363 73.18 83.2104 72.3419C83.2845 71.5038 83.3057 70.7583 83.2713 70.1053C83.2369 69.4523 83.1231 68.9261 82.9298 68.5269C82.7366 68.1304 82.4269 67.9294 82.0007 67.9294C81.5162 67.9294 81.1271 68.1013 80.828 68.4397C80.5289 68.7807 80.3012 69.1932 80.1424 69.677C79.9835 70.1608 79.8671 70.6499 79.793 71.1469C79.7162 71.644 79.6632 72.0352 79.6288 72.3181L78.247 83.615C79.1365 83.5569 79.8538 83.3321 80.3992 82.9329C80.9445 82.5337 81.3706 82.0155 81.6777 81.3757C81.9821 80.7359 82.2071 80.0115 82.3501 79.2025C82.493 78.3935 82.6175 77.5343 82.7286 76.6248L82.9431 74.8773Z" fill="white"/>
<path d="M124.651 81.7829C124.254 85.0215 123.127 87.5014 121.266 89.2225C119.405 90.941 116.924 91.8002 113.822 91.8002H106.01C105.269 91.8002 104.756 91.8795 104.467 92.0355C104.178 92.1915 103.93 92.4109 103.726 92.6964C103.466 92.9529 103.247 93.2939 103.067 93.7196C102.887 94.1452 102.768 94.5867 102.712 95.0415L102.685 95.2556H97.4362L97.5553 94.2748C97.6003 93.9047 97.6876 93.5345 97.8173 93.167C97.9471 92.7969 98.0847 92.4849 98.2303 92.2285C98.4632 91.943 98.7359 91.6469 99.0456 91.3322C99.3527 91.0203 99.7233 90.7348 100.152 90.4809C100.581 90.2245 101.084 90.0183 101.656 89.8623C102.23 89.7063 102.929 89.627 103.755 89.627H113.785C114.838 89.627 115.717 89.4076 116.427 88.9661C117.136 88.5245 117.719 87.9508 118.174 87.2397C118.629 86.5285 118.979 85.7274 119.214 84.8312C119.452 83.9349 119.627 83.0334 119.738 82.1239C119.926 80.5905 119.961 79.4379 119.842 78.6712C119.722 77.9045 119.545 77.3228 119.31 76.9236L119.325 76.7967C119.124 76.5693 118.928 76.3711 118.738 76.1992C118.544 76.0274 118.394 75.9295 118.282 75.9005H117.216L116.834 79.0122C116.795 79.3242 116.734 79.7155 116.649 80.1834C116.562 80.6514 116.403 81.1431 116.17 81.6533C115.937 82.1636 115.604 82.6765 115.172 83.1867C114.741 83.697 114.171 84.1544 113.47 84.5509C112.766 84.9501 111.887 85.2753 110.833 85.5318C109.777 85.7882 108.525 85.9151 107.072 85.9151C106.474 85.9151 105.701 85.8358 104.753 85.6798C103.805 85.5238 102.9 85.1749 102.042 84.6355C101.185 84.0962 100.486 83.3348 99.9536 82.3539C99.4189 81.3731 99.2547 80.0459 99.4586 78.3698C99.5459 77.6586 99.7577 77.0267 100.097 76.4742C100.435 75.919 100.827 75.4431 101.275 75.0465C101.722 74.6499 102.185 74.3353 102.67 74.108C103.154 73.8806 103.596 73.7378 104.004 73.6823L104.983 65.669H124.233L123.968 67.8422H118.206L117.496 73.64H119.503C120.127 73.64 120.792 73.7405 121.493 73.9388C122.195 74.1371 122.817 74.5204 123.36 75.0888C123.902 75.6572 124.305 76.4821 124.572 77.5608C124.837 78.6421 124.866 80.0486 124.654 81.7802M102.685 95.2556H102.728L102.717 95.3402C102.707 95.4248 102.691 95.5041 102.667 95.5755C102.643 95.6469 102.63 95.7104 102.622 95.7659C102.617 95.8029 102.617 95.8029 102.622 95.7659L102.685 95.2556ZM112.096 75.9005H107.956C106.873 75.9005 106.045 76.2336 105.465 76.9025C104.885 77.5713 104.528 78.4438 104.398 79.5225C104.223 80.9448 104.441 81.96 105.049 82.5707C105.658 83.1815 106.418 83.4881 107.329 83.4881C108.239 83.4881 108.925 83.3454 109.473 83.0625C110.021 82.7796 110.447 82.4148 110.759 81.9759C111.069 81.537 111.291 81.0585 111.424 80.5482C111.556 80.038 111.651 79.5674 111.702 79.1417L112.099 75.9031L112.096 75.9005ZM109.88 67.8448L109.171 73.6427H112.371L113.081 67.8448H109.88Z" fill="white"/>
<path d="M175.609 67.8448L173.406 85.8332H168.284L170.487 67.8448H168.565C167.996 67.8448 167.437 67.9294 166.889 68.1013C166.341 68.2731 165.764 68.5137 165.158 68.8257L164.975 70.3168C165.251 70.6287 165.542 71.0412 165.849 71.5541C166.156 72.0643 166.431 72.6565 166.677 73.3227C166.924 73.9916 167.109 74.7372 167.236 75.562C167.363 76.3869 167.368 77.2673 167.255 78.2058C167.067 79.7392 166.72 81.0135 166.212 82.0208C165.703 83.0307 165.092 83.8397 164.377 84.4504C163.662 85.0612 162.889 85.4947 162.063 85.7512C161.235 86.0076 160.409 86.1345 159.583 86.1345C158.9 86.1345 158.212 85.9997 157.521 85.73C156.827 85.4604 156.224 85.0056 155.702 84.3658C155.184 83.726 154.789 82.88 154.519 81.8305C154.249 80.7782 154.209 79.4722 154.403 77.9097C154.458 77.455 154.633 76.9024 154.927 76.2468C155.221 75.5938 155.57 74.9328 155.98 74.2639C156.388 73.5977 156.814 72.9632 157.259 72.3657C157.701 71.7682 158.101 71.3003 158.455 70.9592L158.612 69.6796L158.275 69.2963L158.302 69.0821C158.273 69.0821 158.225 69.061 158.162 69.0187C158.095 68.9764 158.048 68.9552 158.019 68.9552C157.733 68.7278 157.33 68.4793 156.809 68.2097C156.287 67.94 155.485 67.8052 154.405 67.8052C153.921 67.8052 153.373 67.8633 152.761 67.977C152.15 68.0907 151.422 68.3471 150.575 68.7437L150.403 70.1502C150.641 70.5203 150.906 70.983 151.194 71.5355C151.483 72.0881 151.74 72.7147 151.967 73.41C152.195 74.108 152.372 74.8588 152.502 75.6678C152.629 76.4768 152.642 77.3228 152.534 78.2032C152.346 79.7366 151.999 81.0109 151.491 82.0182C150.983 83.0281 150.379 83.8371 149.677 84.4478C148.976 85.0585 148.211 85.4921 147.385 85.7485C146.557 86.005 145.731 86.1319 144.905 86.1319C144.251 86.1319 143.576 85.9971 142.885 85.7274C142.194 85.4577 141.588 85.003 141.066 84.3632C140.547 83.7234 140.161 82.8774 139.904 81.8278C139.647 80.7756 139.616 79.4696 139.809 77.9071C139.865 77.4523 140.026 76.8919 140.293 76.223C140.561 75.5567 140.889 74.8958 141.283 74.2401C141.675 73.5871 142.093 72.9685 142.535 72.3868C142.975 71.8052 143.417 71.3426 143.856 71.0015L144.039 69.5104C143.443 69.0266 142.639 68.63 141.625 68.3181C140.611 68.0061 139.462 67.8501 138.184 67.8501C137.442 67.8501 136.699 68.0008 135.952 68.2969C135.203 68.5957 134.501 68.9949 133.842 69.4919C133.183 69.9889 132.577 70.5785 132.026 71.2606C131.473 71.9427 131.02 72.6671 130.671 73.4338L130.536 74.5415C130.97 74.2587 131.394 74.0445 131.809 73.9017C132.225 73.759 132.688 73.6876 133.202 73.6876C133.628 73.6876 134.073 73.7722 134.536 73.944L134.531 73.9863C135.801 74.2983 136.706 74.9883 137.244 76.0538C137.781 77.1192 137.961 78.3777 137.784 79.8265C137.638 81.0215 137.323 82.0155 136.844 82.8113C136.362 83.6071 135.796 84.2337 135.142 84.6884C134.488 85.1431 133.803 85.463 133.083 85.6481C132.363 85.8331 131.69 85.9257 131.063 85.9257C130.322 85.9257 129.554 85.8252 128.752 85.6269C127.95 85.4287 127.251 84.9951 126.65 84.3262C126.049 83.66 125.599 82.6712 125.305 81.3625C125.011 80.0565 124.998 78.2931 125.268 76.0776C125.456 74.5415 125.986 73.1298 126.854 71.8369C127.722 70.5441 128.784 69.4285 130.038 68.4899C131.29 67.5514 132.662 66.8137 134.149 66.2744C135.637 65.7351 137.109 65.4654 138.559 65.4654C139.896 65.4654 141.04 65.5368 141.99 65.6796C142.941 65.8223 143.729 65.9995 144.357 66.2136C144.984 66.4278 145.49 66.6604 145.871 66.9169C146.252 67.1733 146.556 67.4139 146.784 67.6413L146.774 67.7259C148.423 66.8164 149.799 66.248 150.908 66.0206C152.018 65.7932 153.055 65.6796 154.024 65.6796C155.221 65.6796 156.229 65.7377 157.055 65.8514C157.878 65.9651 158.561 66.0999 159.096 66.2559C159.631 66.4119 160.06 66.5837 160.377 66.7662C160.695 66.9512 160.962 67.0993 161.177 67.213L161.129 67.5963L161.492 67.7655L161.502 67.6809C162.056 67.3399 162.582 67.049 163.083 66.8058C163.583 66.5652 164.112 66.359 164.674 66.1872C165.235 66.018 165.825 65.8884 166.45 65.8038C167.072 65.7192 167.781 65.6769 168.578 65.6769H178.566L178.298 67.8501H175.609V67.8448ZM132.99 79.9084C133.043 79.4828 133.067 79.0413 133.067 78.5865C133.067 78.1318 133.008 77.7194 132.897 77.3492C132.786 76.9818 132.617 76.6751 132.392 76.4318C132.164 76.1913 131.838 76.0696 131.412 76.0696C131.327 76.0696 131.169 76.0908 130.936 76.1331C130.703 76.1754 130.425 76.2388 130.102 76.3234L129.861 78.2851C129.66 79.9322 129.602 81.2039 129.694 82.1001C129.784 82.9964 130.239 83.4432 131.065 83.4432C131.719 83.4432 132.169 83.1391 132.415 82.5258C132.662 81.9151 132.852 81.0426 132.993 79.9058M147.959 77.9044C148.126 76.5402 148.113 75.3109 147.92 74.2164C147.727 73.1218 147.443 72.1225 147.07 71.2104L147.075 71.1681C146.707 71.6228 146.382 72.0696 146.101 72.5111C145.818 72.9526 145.561 73.4285 145.328 73.9388C145.095 74.449 144.899 75.0042 144.741 75.6017C144.582 76.1992 144.457 76.8813 144.362 77.648C144.272 78.3856 144.208 79.1259 144.177 79.8635C144.142 80.6037 144.169 81.27 144.251 81.8675C144.333 82.465 144.473 82.9541 144.669 83.3374C144.862 83.7208 145.146 83.9138 145.516 83.9138C145.829 83.9138 146.114 83.7419 146.369 83.4035C146.623 83.0625 146.856 82.6077 147.07 82.0393C147.282 81.4709 147.459 80.8232 147.607 80.0988C147.753 79.3744 147.869 78.6421 147.962 77.9044M158.717 57.9967C158.617 58.8216 158.167 59.5248 157.37 60.1065C156.573 60.6881 155.647 60.9789 154.596 60.9789C153.545 60.9789 152.716 60.6881 152.036 60.1065C151.353 59.5248 151.062 58.8216 151.163 57.9967C151.263 57.1719 151.726 56.4765 152.55 55.9081C153.373 55.3397 154.297 55.0568 155.321 55.0568C156.346 55.0568 157.227 55.3424 157.884 55.9081C158.54 56.4765 158.818 57.1719 158.715 57.9967M158.27 69.3359C158.201 69.1932 158.154 69.1218 158.125 69.1218L158.275 69.291L158.27 69.3333V69.3359ZM162.641 77.9044C162.826 76.3975 162.836 75.1337 162.678 74.1106C162.519 73.0875 162.204 72.178 161.73 71.3822L161.725 71.4245C161.492 71.71 161.232 72.0775 160.949 72.5323C160.666 72.987 160.388 73.5052 160.118 74.0868C159.848 74.6684 159.604 75.3082 159.392 76.0062C159.178 76.7042 159.03 77.4074 158.942 78.1159C158.852 78.8562 158.8 79.5727 158.786 80.268C158.773 80.9659 158.81 81.5819 158.9 82.1213C158.99 82.6606 159.136 83.0942 159.337 83.422C159.538 83.7498 159.824 83.9138 160.195 83.9138C160.507 83.9138 160.793 83.7419 161.047 83.4035C161.301 83.0651 161.534 82.6077 161.748 82.0393C161.96 81.4709 162.138 80.8232 162.286 80.0988C162.431 79.3744 162.551 78.6421 162.641 77.9044ZM161.293 67.2896C161.264 67.2896 161.224 67.2632 161.177 67.205L161.338 65.8831C161.23 65.8276 161.235 65.7985 161.349 65.7985H161.476L161.293 67.2896Z" fill="white"/>
<path d="M229.619 85.8332L232.29 64.0087C232.358 63.4403 232.419 62.7793 232.467 62.0259C232.517 61.2724 232.483 60.5559 232.366 59.8738C232.25 59.1917 232.017 58.6101 231.662 58.1263C231.308 57.6425 230.775 57.4019 230.066 57.4019C228.928 57.4019 227.983 57.9121 227.231 58.9353C226.479 59.9584 225.958 61.6637 225.666 64.051L225.468 65.6716H229.052L228.785 67.8448H226.18L223.978 85.8332H218.813L221.015 67.8448H219.009C218.014 67.8448 216.918 68.1859 215.726 68.868L215.554 70.2745C215.801 70.5864 216.071 70.9989 216.364 71.5091C216.658 72.0194 216.926 72.6116 217.172 73.2778C217.418 73.9467 217.595 74.6922 217.709 75.5145C217.823 76.3393 217.818 77.2329 217.701 78.2006C217.513 79.734 217.166 81.0083 216.658 82.0155C216.15 83.0255 215.554 83.8345 214.866 84.4452C214.178 85.0559 213.421 85.4895 212.595 85.7459C211.766 86.0024 210.94 86.1293 210.114 86.1293C209.431 86.1293 208.743 85.9944 208.052 85.7248C207.359 85.4551 206.747 85.0004 206.213 84.3606C205.678 83.7208 205.278 82.8748 205.008 81.8252C204.738 80.7756 204.698 79.4669 204.889 77.9045C204.945 77.4497 205.119 76.8972 205.413 76.2415C205.707 75.5885 206.048 74.9355 206.443 74.2798C206.837 73.6268 207.261 73.0082 207.716 72.4265C208.171 71.8449 208.59 71.3822 208.974 71.0412L209.135 69.7193C209.026 69.6638 208.95 69.5977 208.902 69.5289C208.854 69.4575 208.817 69.4073 208.794 69.3782L208.799 69.3359C208.656 69.1086 208.563 68.9817 208.526 68.9526C208.486 68.9261 208.441 68.8971 208.389 68.868C208.259 68.7543 208.119 68.6327 207.965 68.5058C207.809 68.3789 207.602 68.2573 207.348 68.1436C207.091 68.0299 206.774 67.9453 206.398 67.8871C206.022 67.8316 205.532 67.8025 204.937 67.8025C204.426 67.8025 203.862 67.8607 203.25 67.9717C202.639 68.0854 201.911 68.3419 201.064 68.7384L200.892 70.1449C201.13 70.5151 201.395 70.9751 201.683 71.5303C201.972 72.0855 202.237 72.7015 202.48 73.3836C202.724 74.0657 202.901 74.8191 203.015 75.644C203.129 76.4689 203.129 77.3202 203.023 78.2006C202.835 79.734 202.488 81.0083 201.98 82.0155C201.472 83.0255 200.86 83.8345 200.145 84.4452C199.431 85.0559 198.658 85.4895 197.832 85.7459C197.003 86.0024 196.164 86.1293 195.309 86.1293C194.655 86.1293 193.988 85.9944 193.31 85.7248C192.633 85.4551 192.034 85.0004 191.513 84.3606C190.994 83.7208 190.608 82.8748 190.351 81.8252C190.097 80.7756 190.062 79.4669 190.256 77.9045C190.309 77.4788 190.473 76.9448 190.751 76.305C191.029 75.6652 191.357 75.0121 191.738 74.3433C192.119 73.677 192.529 73.0372 192.974 72.4239C193.419 71.8132 193.848 71.3241 194.263 70.9539L194.441 69.5051C193.845 69.0213 193.027 68.6248 191.984 68.3128C190.941 68.0008 189.821 67.8448 188.628 67.8448C187.86 67.8448 187.1 68.0008 186.351 68.3128C185.602 68.6274 184.895 69.0451 184.233 69.5712C183.572 70.0973 182.971 70.7081 182.431 71.4034C181.891 72.1013 181.446 72.8178 181.099 73.5554L180.969 74.6209C181.374 74.338 181.793 74.108 182.227 73.9388C182.661 73.7669 183.119 73.6823 183.603 73.6823C184.485 73.6823 185.242 73.8383 185.872 74.1503C186.502 74.4622 187.01 74.8958 187.399 75.451C187.786 76.0062 188.04 76.6592 188.162 77.4127C188.283 78.1662 188.291 78.9673 188.188 79.8212C188.043 81.0162 187.728 82.0102 187.248 82.806C186.767 83.6018 186.205 84.2284 185.567 84.6831C184.927 85.1379 184.249 85.4578 183.529 85.6428C182.809 85.8279 182.15 85.9204 181.554 85.9204C180.787 85.9204 180.001 85.8199 179.201 85.6217C178.399 85.4234 177.7 84.9898 177.097 84.3209C176.496 83.6547 176.046 82.6659 175.752 81.3572C175.458 80.0512 175.445 78.2878 175.715 76.0723C175.903 74.5389 176.424 73.1245 177.279 71.8317C178.134 70.5389 179.188 69.4232 180.443 68.4846C181.695 67.5461 183.074 66.8085 184.575 66.2691C186.078 65.7298 187.555 65.4601 189.006 65.4601C190.372 65.4601 191.529 65.5315 192.479 65.6743C193.43 65.8171 194.224 66.0021 194.864 66.2295C195.505 66.4568 196.016 66.6974 196.397 66.9539C196.778 67.2103 197.096 67.4509 197.353 67.6783L197.342 67.7629C198.991 66.8534 200.362 66.2771 201.458 66.0365C202.554 65.7959 203.557 65.6743 204.468 65.6743C205.606 65.6743 206.594 65.7536 207.428 65.9096C208.261 66.0656 208.971 66.2506 209.559 66.4648C210.144 66.6789 210.636 66.8984 211.036 67.1257C211.435 67.3531 211.753 67.5514 211.986 67.7232L211.991 67.6809C212.545 67.3399 213.079 67.0491 213.593 66.8058C214.106 66.5652 214.636 66.359 215.184 66.1872C215.732 66.018 216.317 65.8884 216.939 65.8038C217.561 65.7192 218.257 65.6769 219.025 65.6769H220.518L220.626 64.7807C220.902 62.7635 221.41 61.1005 222.154 59.7945C222.898 58.4885 223.734 57.4495 224.668 56.6828C225.603 55.9161 226.564 55.3767 227.556 55.0621C228.547 54.7502 229.441 54.5942 230.238 54.5942C232.313 54.5942 233.867 54.9934 234.894 55.7865C235.921 56.5823 236.628 57.5499 237.015 58.6868C237.401 59.8236 237.571 61.0027 237.52 62.2241C237.47 63.4456 237.391 64.4978 237.285 65.3782L234.781 85.8385H229.616L229.619 85.8332ZM183.566 79.9084C183.619 79.4828 183.635 79.0413 183.622 78.5865C183.606 78.1318 183.542 77.7194 183.431 77.3493C183.32 76.9791 183.137 76.6751 182.883 76.4319C182.629 76.1913 182.288 76.0697 181.861 76.0697C181.663 76.0697 181.483 76.0829 181.324 76.112C181.163 76.141 181.028 76.2177 180.911 76.3473C180.795 76.4742 180.691 76.6962 180.596 77.0082C180.501 77.3202 180.421 77.7458 180.355 78.2878C180.154 79.9349 180.104 81.2065 180.21 82.1028C180.313 82.999 180.776 83.4458 181.602 83.4458C182.256 83.4458 182.714 83.1418 182.973 82.5284C183.233 81.9177 183.431 81.0453 183.572 79.9058M198.494 77.9045C198.671 76.4557 198.668 75.2051 198.483 74.1529C198.298 73.1033 197.98 72.1066 197.525 71.1681L197.53 71.1258C196.86 71.9506 196.286 72.8733 195.804 73.8965C195.322 74.9196 194.991 76.1701 194.811 77.648C194.721 78.3883 194.666 79.1259 194.647 79.8661C194.629 80.6064 194.66 81.2726 194.742 81.8701C194.825 82.4676 194.965 82.9567 195.161 83.3401C195.354 83.7234 195.637 83.9164 196.008 83.9164C196.32 83.9164 196.611 83.7446 196.881 83.4035C197.151 83.0625 197.39 82.6077 197.604 82.0393C197.816 81.4709 197.993 80.8232 198.141 80.0988C198.287 79.3744 198.403 78.6421 198.496 77.9045M208.788 69.4655C208.767 69.41 208.764 69.3729 208.78 69.3597C208.796 69.3465 208.801 69.3544 208.799 69.3809L208.788 69.4655ZM213.132 77.9045C213.32 76.3711 213.339 75.1047 213.19 74.1106C213.042 73.1166 212.719 72.2071 212.222 71.3822L212.216 71.4245C211.981 71.7101 211.724 72.0775 211.441 72.5323C211.157 72.987 210.887 73.5052 210.631 74.0868C210.374 74.6685 210.141 75.3082 209.927 76.0062C209.712 76.7042 209.564 77.4074 209.477 78.116C209.387 78.8562 209.326 79.5727 209.299 80.268C209.27 80.966 209.299 81.582 209.392 82.1213C209.482 82.6606 209.627 83.0942 209.831 83.422C210.032 83.7499 210.318 83.9138 210.689 83.9138C211.001 83.9138 211.287 83.7419 211.541 83.4009C211.795 83.0598 212.028 82.6051 212.243 82.0367C212.455 81.4683 212.632 80.8205 212.78 80.0961C212.926 79.3717 213.045 78.6394 213.135 77.9018" fill="white"/>
<path d="M34.9265 125.112C34.5294 128.353 33.4018 130.825 31.5435 132.53C29.6852 134.236 27.1757 135.087 24.0176 135.087H19.4513C18.7101 135.087 18.1569 135.209 17.7863 135.449C17.4157 135.69 17.0795 135.996 16.7777 136.367L16.7565 136.538C16.6506 136.71 16.5447 136.922 16.4441 137.178C16.3409 137.435 16.2615 137.789 16.2059 138.244L16.1583 138.627C16.145 138.741 16.1238 138.796 16.0947 138.796L16.1053 138.712C16.0841 138.653 16.0762 138.598 16.0841 138.542H10.9619L11.081 137.562C11.126 137.191 11.216 136.795 11.3563 136.367C11.494 135.941 11.6713 135.528 11.8911 135.132C12.0367 134.875 12.2537 134.614 12.5423 134.344C12.8308 134.074 13.1882 133.834 13.6117 133.62C14.0352 133.405 14.5409 133.236 15.1259 133.109C15.7109 132.982 16.4018 132.916 17.1986 132.916H24.0282C25.0818 132.916 25.9606 132.697 26.6701 132.255C27.3795 131.814 27.9619 131.24 28.4172 130.529C28.8725 129.818 29.2219 129.017 29.4575 128.121C29.6958 127.224 29.8678 126.323 29.9816 125.413C30.1564 123.994 30.2305 122.862 30.204 122.024C30.1775 121.186 30.0928 120.554 29.9446 120.126C29.7963 119.7 29.611 119.422 29.3834 119.296C29.1557 119.169 28.944 119.103 28.7454 119.103C28.6025 119.103 28.4198 119.153 28.1948 119.253C27.9698 119.354 27.7792 119.446 27.6283 119.531L27.6177 119.615L27.1757 120.083L26.0692 129.12H20.9469L23.1494 111.132H19.5651L17.3627 129.12H12.2405L14.7076 108.958H34.81L34.5427 111.132H28.2689L27.533 117.141C27.3716 117.284 27.3239 117.339 27.3848 117.313C27.4457 117.284 27.5066 117.257 27.5648 117.228L28.2848 116.929C28.4331 116.874 28.6263 116.824 28.8593 116.781C29.0922 116.739 29.4787 116.718 30.0187 116.718C30.8446 116.718 31.599 116.887 32.282 117.228C32.965 117.569 33.5288 118.087 33.9709 118.785C34.413 119.483 34.7253 120.356 34.908 121.408C35.0933 122.46 35.0986 123.695 34.9239 125.117M27.6177 119.613C27.6786 119.584 27.7395 119.541 27.803 119.486L27.7077 119.571C27.676 119.6 27.6416 119.642 27.6072 119.697L27.6177 119.613Z" fill="white"/>
<path d="M59.349 118.759C59.0975 120.805 58.6846 122.489 58.1128 123.811C57.5384 125.133 56.8183 126.193 55.9527 126.986C55.0871 127.782 54.0865 128.337 52.9535 128.649C51.8205 128.961 50.5711 129.117 49.2051 129.117H35.3765L37.8436 108.956H43.0082L40.8111 126.902H44.2259L45.6606 115.179C45.883 113.36 46.6295 111.848 47.9028 110.64C49.1734 109.432 50.9893 108.829 53.3532 108.829C54.4333 108.829 55.3942 109.014 56.2307 109.384C57.0672 109.754 57.7581 110.336 58.3007 111.132C58.8434 111.927 59.2087 112.958 59.394 114.222C59.582 115.486 59.5661 117.001 59.3517 118.762M51.757 101.283C51.6564 102.108 51.2011 102.812 50.3884 103.393C49.5757 103.975 48.6731 104.266 47.6777 104.266C46.5951 104.266 45.7136 103.975 45.0306 103.393C44.3476 102.812 44.0564 102.108 44.157 101.283C44.2576 100.459 44.7209 99.7633 45.5441 99.1949C46.3674 98.6265 47.3204 98.3409 48.4004 98.3409C49.3957 98.3409 50.2296 98.6265 50.8993 99.1949C51.569 99.7633 51.8549 100.459 51.7543 101.283M54.0018 118.164C54.105 117.313 54.195 116.467 54.2691 115.629C54.3433 114.791 54.3644 114.045 54.33 113.392C54.2956 112.739 54.1818 112.213 53.9885 111.814C53.7953 111.417 53.4856 111.216 53.0594 111.216C52.575 111.216 52.1858 111.388 51.8867 111.726C51.5902 112.067 51.3599 112.48 51.2011 112.964C51.0423 113.448 50.9258 113.937 50.8517 114.434C50.7749 114.931 50.722 115.322 50.6875 115.605L49.3057 126.902C50.1952 126.844 50.9126 126.619 51.4579 126.22C52.0032 125.82 52.4294 125.302 52.7364 124.662C53.0435 124.023 53.2659 123.298 53.4088 122.489C53.5518 121.68 53.6762 120.821 53.7874 119.912L54.0018 118.164Z" fill="white"/>
<path d="M82.9933 118.759C82.7418 120.805 82.3289 122.489 81.7571 123.811C81.1826 125.133 80.4626 126.193 79.597 126.986C78.7314 127.782 77.7308 128.337 76.5978 128.649C75.4648 128.961 74.2154 129.117 72.8494 129.117H59.0208L61.4879 108.956H66.6525L64.4553 126.902H67.8702L69.3049 115.179C69.5273 113.36 70.2738 111.848 71.547 110.64C72.8177 109.432 74.6336 108.829 76.9975 108.829C78.0775 108.829 79.0385 109.014 79.875 109.384C80.7114 109.754 81.4024 110.336 81.945 111.132C82.4877 111.927 82.853 112.958 83.0383 114.222C83.2262 115.486 83.2104 117.001 82.9959 118.762M77.6461 118.164C77.7493 117.313 77.8393 116.467 77.9134 115.629C77.9875 114.791 78.0087 114.045 77.9743 113.392C77.9399 112.739 77.8261 112.213 77.6328 111.814C77.4396 111.417 77.1299 111.216 76.7037 111.216C76.2192 111.216 75.8301 111.388 75.531 111.726C75.2345 112.067 75.0042 112.48 74.8454 112.964C74.6865 113.448 74.5701 113.937 74.496 114.434C74.4192 114.931 74.3662 115.322 74.3318 115.605L72.95 126.902C73.8395 126.844 74.5568 126.619 75.1048 126.22C75.6501 125.82 76.0763 125.302 76.3834 124.662C76.6904 124.023 76.9128 123.298 77.0557 122.489C77.1987 121.68 77.3231 120.821 77.4343 119.912L77.6487 118.164H77.6461Z" fill="white"/>
<path d="M97.7405 107.473H101.367L100.981 110.637H101.065C101.682 109.569 102.553 108.705 103.675 108.046C104.798 107.388 106.055 107.057 107.445 107.057C108.432 107.057 109.303 107.221 110.063 107.547C110.823 107.872 111.455 108.345 111.964 108.961C112.472 109.58 112.824 110.331 113.02 111.219H113.105C113.615 110.344 114.243 109.598 114.992 108.982C115.741 108.364 116.578 107.89 117.501 107.557C118.425 107.224 119.394 107.057 120.408 107.057C121.837 107.057 123.047 107.351 124.029 107.941C125.014 108.53 125.731 109.355 126.184 110.418C126.637 111.481 126.777 112.731 126.6 114.175L124.771 129.117H121.144L122.87 115.005C122.992 114.005 122.92 113.151 122.65 112.446C122.383 111.737 121.938 111.198 121.319 110.822C120.697 110.447 119.908 110.259 118.949 110.259C117.991 110.259 117.118 110.479 116.326 110.915C115.537 111.351 114.886 111.956 114.375 112.726C113.864 113.495 113.549 114.373 113.427 115.359L111.744 129.117H108.117L109.894 114.611C109.999 113.736 109.909 112.974 109.621 112.321C109.332 111.668 108.88 111.163 108.266 110.801C107.649 110.442 106.889 110.259 105.986 110.259C105.028 110.259 104.149 110.492 103.347 110.957C102.548 111.422 101.883 112.049 101.357 112.839C100.83 113.63 100.504 114.531 100.38 115.544L98.72 129.115H95.0934L97.7432 107.467L97.7405 107.473Z" fill="white"/>
<path d="M132.024 107.473H135.65L135.203 111.137H135.288C135.801 109.889 136.548 108.895 137.527 108.16C138.507 107.425 139.608 107.057 140.831 107.057C141.151 107.057 141.437 107.076 141.688 107.11C141.943 107.145 142.136 107.176 142.271 107.203L141.839 110.722C141.707 110.666 141.466 110.619 141.117 110.576C140.767 110.534 140.37 110.516 139.925 110.516C138.994 110.516 138.152 110.724 137.4 111.14C136.646 111.557 136.031 112.155 135.555 112.94C135.076 113.725 134.771 114.664 134.636 115.761L133 129.123H129.374L132.024 107.475V107.473Z" fill="white"/>
<path d="M141.032 128.723C140.63 128.266 140.468 127.703 140.55 127.037C140.632 126.37 140.929 125.807 141.445 125.35C141.958 124.892 142.549 124.662 143.216 124.662C143.883 124.662 144.418 124.892 144.82 125.35C145.222 125.807 145.384 126.37 145.302 127.037C145.22 127.703 144.923 128.263 144.407 128.723C143.894 129.181 143.301 129.411 142.633 129.411C141.966 129.411 141.432 129.181 141.029 128.723" fill="white"/>
<path d="M161.256 129.117L161.418 127.795C161.823 127.512 162.185 127.042 162.508 126.389C162.829 125.736 163.085 124.641 163.273 123.108L163.826 118.59C163.93 117.738 163.946 116.871 163.866 115.988C163.789 115.108 163.601 114.32 163.302 113.622C163.003 112.927 162.574 112.35 162.018 111.896C161.463 111.441 160.743 111.214 159.861 111.214C159.064 111.214 158.36 111.391 157.746 111.748C157.132 112.104 156.587 112.551 156.11 113.091C155.631 113.63 155.223 114.241 154.882 114.923C154.543 115.605 154.262 116.258 154.045 116.884L153.921 117.908C154.376 117.68 154.863 117.482 155.382 117.31C155.901 117.138 156.43 117.054 156.973 117.054C157.116 117.054 157.325 117.069 157.608 117.096C157.889 117.125 158.069 117.167 158.148 117.223L158.143 117.265C159.292 117.635 160.158 118.344 160.743 119.396C161.325 120.448 161.529 121.683 161.357 123.105C161.211 124.3 160.896 125.294 160.414 126.09C159.933 126.886 159.366 127.512 158.712 127.965C158.058 128.419 157.373 128.739 156.653 128.924C155.933 129.109 155.274 129.202 154.678 129.202C153.91 129.202 153.124 129.101 152.325 128.903C151.523 128.705 150.824 128.271 150.223 127.602C149.622 126.936 149.172 125.947 148.878 124.639C148.582 123.333 148.571 121.569 148.841 119.354C149.029 117.82 149.45 116.414 150.104 115.134C150.758 113.855 151.583 112.747 152.581 111.808C153.577 110.87 154.72 110.14 156.009 109.614C157.296 109.088 158.651 108.826 160.075 108.826C162.154 108.826 163.805 109.167 165.031 109.849C166.257 110.531 167.18 111.356 167.803 112.321C168.425 113.289 168.806 114.296 168.949 115.348C169.089 116.401 169.115 117.294 169.025 118.034L168.618 121.36C168.52 122.156 168.43 122.788 168.343 123.259C168.255 123.727 168.147 124.033 168.017 124.176L167.247 124.9L167.167 125.54C167.12 125.939 167.104 126.18 167.122 126.265L167.043 126.904H170.458L172.655 108.958H177.819L175.352 129.12H161.267L161.256 129.117ZM156.645 123.193C156.7 122.738 156.727 122.283 156.727 121.828C156.727 121.374 156.669 120.961 156.557 120.594C156.446 120.224 156.269 119.925 156.028 119.697C155.784 119.47 155.451 119.356 155.025 119.356C154.768 119.356 154.331 119.441 153.714 119.613L153.624 120.337C153.579 120.48 153.542 120.649 153.519 120.847C153.495 121.046 153.474 121.218 153.458 121.358L153.368 122.082C153.19 123.531 153.172 124.668 153.312 125.493C153.452 126.317 153.892 126.727 154.633 126.727C155.258 126.727 155.716 126.423 156.004 125.81C156.293 125.199 156.504 124.327 156.645 123.19" fill="white"/>
<path d="M193.289 111.129L191.089 129.117H185.967L188.17 111.129H183.987L181.785 129.117H176.705L179.172 108.956H197.056L196.791 111.129H193.289Z" fill="white"/>
<path d="M196.339 129.117L198.806 108.956H203.928L201.731 126.902H212.785L212.515 129.117H196.339ZM212.592 101.283C212.492 102.108 212.042 102.812 211.245 103.393C210.448 103.975 209.508 104.266 208.428 104.266C207.348 104.266 206.528 103.975 205.89 103.393C205.249 102.812 204.979 102.108 205.082 101.283C205.183 100.459 205.622 99.7633 206.406 99.1949C207.187 98.6265 208.103 98.3436 209.156 98.3436C210.21 98.3436 211.105 98.6291 211.761 99.1949C212.418 99.7633 212.695 100.459 212.595 101.283" fill="white"/>
<path d="M214.008 129.117L216.476 108.956H221.598L219.401 126.902H230.455L230.185 129.117H214.008Z" fill="white"/>
<path d="M248.178 111.129L245.978 129.117H240.856L243.058 111.129H238.876L236.673 129.117H231.593L234.061 108.956H251.945L251.68 111.129H248.18H248.178ZM246.735 101.283C246.634 102.108 246.184 102.812 245.388 103.393C244.591 103.975 243.693 104.266 242.698 104.266C242.158 104.266 241.66 104.189 241.21 104.03C240.76 103.874 240.374 103.66 240.051 103.391C239.728 103.121 239.49 102.809 239.334 102.452C239.177 102.098 239.127 101.706 239.177 101.281C239.278 100.456 239.741 99.7607 240.565 99.1922C241.388 98.6238 242.341 98.3409 243.421 98.3409C244.416 98.3409 245.242 98.6265 245.899 99.1922C246.555 99.7607 246.833 100.456 246.732 101.281" fill="white"/>
</svg>
